<svg width="381" height="295" viewBox="0 0 381 295" fill="none" xmlns="http://www.w3.org/2000/svg">
<g filter="url(#filter0_d_383_11253)">
<path d="M64.5177 234.61C69.776 234.61 74.1257 238.867 74.3849 244.119C74.9756 256.092 75.6933 271.817 70.922 279.635C62.9474 292.7 39.4605 292.592 31.7452 279.325C30.3724 276.88 29.7041 274.3 29.3614 271.649C28.9167 268.208 31.8312 265.335 35.3009 265.335C38.712 265.335 41.1791 268.16 41.9737 271.477C42.2951 272.818 42.8244 274.097 43.6954 275.239C57.1881 292.097 56.2045 260.796 54.9835 244.08C54.6004 238.836 58.4665 234.61 63.7247 234.61H64.5177ZM132.964 249.843C135.693 249.843 138.073 250.336 140.105 251.32C142.136 252.272 143.723 253.604 144.865 255.318C146.008 257 146.579 259 146.579 261.317C146.579 263.57 146.008 265.553 144.865 267.267C143.723 268.98 142.136 270.314 140.105 271.266C139.778 271.419 139.733 271.881 140.037 272.076L154.119 281.152C156.483 282.675 155.453 286.34 152.641 286.408L137.473 286.779C136.493 286.802 135.57 286.321 135.026 285.506L127.336 273.966C126.806 273.171 125.914 272.694 124.959 272.694H124.49C122.913 272.694 121.634 273.973 121.634 275.55V282.691C121.634 284.268 120.355 285.547 118.777 285.547H114.636C113.059 285.547 111.779 284.268 111.779 282.691V271.965C111.557 274.51 110.897 276.97 109.458 279.279C102.98 289.753 84.4245 289.616 77.8956 279.279C73.7492 272.485 75.1315 262.202 75.5548 253.966C75.6539 252.041 77.2216 250.478 79.1495 250.478H85.5821C87.5862 250.478 89.1794 252.161 89.0685 254.162L88.1622 270.472C88.1623 277.065 92.494 280.199 98.2227 277.185C104.223 274.027 102.075 262.699 101 255.154C100.67 252.835 102.801 251.164 105.043 251.844L107.9 252.71C109.371 253.156 110.367 254.514 110.482 256.048C110.759 259.767 111.515 263.596 111.779 267.336V252.699C111.779 251.122 113.059 249.843 114.636 249.843H132.964ZM312.544 226.972C319.524 226.972 325.199 228.654 329.568 232.019C333.987 235.383 336.599 239.954 337.402 245.729H319.775C319.123 244.674 318.193 243.871 316.988 243.319C315.783 242.716 314.326 242.414 312.619 242.414C309.405 242.414 306.92 243.469 305.162 245.578C303.405 247.637 302.526 250.475 302.525 254.09C302.526 258.258 303.505 261.372 305.463 263.431C307.422 265.49 310.436 266.52 314.503 266.52C318.369 266.52 321.483 264.962 323.843 261.849H310.51V250.023H336.16C338.109 246.785 340.714 244.261 343.977 242.452C347.337 240.572 351.017 239.632 355.017 239.632C359.017 239.632 362.677 240.572 365.997 242.452C369.317 244.292 371.937 246.872 373.857 250.192C375.816 253.511 376.797 257.253 376.797 261.412C376.797 265.572 375.816 269.312 373.857 272.632C371.937 275.952 369.296 278.552 365.937 280.432C362.617 282.312 358.976 283.252 355.017 283.252C351.017 283.252 347.336 282.312 343.977 280.432C340.657 278.552 338.017 275.952 336.057 272.632C335.672 271.98 335.326 271.311 335.017 270.627C333.102 272.986 330.811 275.109 328.137 276.99C324.069 279.802 318.921 281.208 312.694 281.208C307.171 281.208 302.349 280.078 298.232 277.819C294.164 275.509 291.025 272.294 288.816 268.177C288.023 266.666 287.378 265.075 286.876 263.408V280.672C286.876 282.392 286.396 283.792 285.437 284.872C284.517 285.912 283.256 286.432 281.656 286.432C280.617 286.432 279.716 286.311 278.956 286.071C278.237 285.832 277.556 285.452 276.916 284.932C276.316 284.372 275.656 283.651 274.937 282.772L261.736 265.505V280.372C261.736 282.332 261.217 283.832 260.177 284.872C259.177 285.912 257.696 286.432 255.736 286.432C254.566 286.432 253.559 286.244 252.717 285.873C251.936 286.46 250.96 286.816 249.868 286.817C247.97 286.817 246.252 285.687 245.499 283.945L243.717 279.82C243.383 279.911 243.032 279.962 242.669 279.962H226.008C225.772 279.962 225.54 279.94 225.316 279.901L224.606 281.539C223.277 284.604 219.963 286.298 216.7 285.581L215.37 285.289C210.662 284.254 208.396 278.872 210.943 274.779L224.876 252.405C226.427 249.915 229.37 248.659 232.241 249.264L237.571 250.386C239.744 250.844 241.569 252.307 242.488 254.328L249.736 270.269V251.392C249.736 249.352 250.237 247.792 251.236 246.712C252.276 245.632 253.656 245.072 255.376 245.031C256.816 244.951 257.996 245.092 258.916 245.452C259.836 245.812 260.696 246.412 261.496 247.252C262.336 248.052 263.277 249.152 264.316 250.552L274.876 264.545V251.092C274.876 249.132 275.376 247.632 276.376 246.592C277.416 245.552 278.916 245.032 280.876 245.031C282.836 245.031 284.317 245.552 285.316 246.592C285.649 246.924 285.927 247.305 286.153 247.732C286.68 244.963 287.566 242.386 288.816 240.004C291.025 235.886 294.164 232.697 298.232 230.437C302.299 228.127 307.07 226.972 312.544 226.972ZM157.942 247.304C159.946 247.304 161.539 248.988 161.428 250.988L160.522 267.298C160.522 273.892 164.854 277.026 170.583 274.011C176.583 270.853 174.434 259.526 173.359 251.982C173.029 249.662 175.161 247.99 177.403 248.67L180.26 249.536C181.731 249.983 182.727 251.341 182.841 252.874C183.428 260.754 186.168 269.126 181.817 276.106C175.339 286.58 156.784 286.443 150.255 276.106C146.108 269.312 147.491 259.028 147.914 250.792C148.013 248.867 149.581 247.304 151.509 247.304H157.942ZM228.736 272.012H240.344L234.55 258.602L228.736 272.012ZM355.017 251.932C352.337 251.932 350.277 252.792 348.837 254.512C347.397 256.192 346.677 258.492 346.677 261.412C346.677 264.292 347.397 266.592 348.837 268.312C350.277 269.991 352.337 270.832 355.017 270.832C357.656 270.832 359.697 269.991 361.137 268.312C362.577 266.592 363.297 264.292 363.297 261.412C363.297 258.493 362.577 256.192 361.137 254.512C359.697 252.792 357.657 251.932 355.017 251.932ZM124.49 257.174C122.913 257.174 121.634 258.453 121.634 260.03V262.602C121.634 264.179 122.913 265.457 124.49 265.457H131.583C133.17 265.457 134.407 265.092 135.296 264.362C136.184 263.633 136.629 262.617 136.629 261.317C136.629 259.984 136.185 258.967 135.296 258.269C134.407 257.539 133.17 257.174 131.583 257.174H124.49Z" fill="url(#paint0_linear_383_11253)"/>
</g>
<g filter="url(#filter1_d_383_11253)">
<path d="M199.116 289.551C197.596 289.551 195.956 289.431 194.196 289.191C192.476 288.991 190.756 288.551 189.036 287.871C187.356 287.191 185.816 286.171 184.416 284.811C183.416 283.851 182.836 282.811 182.676 281.691C182.516 280.571 182.656 279.511 183.096 278.511C183.576 277.511 184.236 276.711 185.076 276.111C185.956 275.511 186.936 275.251 188.016 275.331C189.096 275.371 190.176 275.871 191.256 276.831C192.416 277.871 193.656 278.711 194.976 279.351C196.296 279.991 197.676 280.311 199.116 280.311C201.436 280.311 203.016 280.031 203.856 279.471C204.696 278.871 205.116 278.191 205.116 277.431C205.116 276.791 204.816 276.271 204.216 275.871C203.656 275.471 202.596 275.111 201.036 274.791L193.836 273.231C190.276 272.431 187.576 271.071 185.736 269.151C183.896 267.191 182.976 264.611 182.976 261.411C182.976 258.531 183.696 256.091 185.136 254.091C186.616 252.091 188.696 250.571 191.376 249.531C194.096 248.451 197.316 247.911 201.036 247.911C202.316 247.911 203.796 248.071 205.476 248.391C207.156 248.711 208.796 249.231 210.396 249.951C212.036 250.631 213.356 251.551 214.356 252.711C215.156 253.631 215.596 254.631 215.676 255.711C215.796 256.751 215.616 257.731 215.136 258.651C214.696 259.571 214.036 260.291 213.156 260.811C212.316 261.331 211.356 261.531 210.276 261.411C209.196 261.291 208.096 260.711 206.976 259.671C206.216 258.951 205.236 258.351 204.036 257.871C202.836 257.351 201.656 257.071 200.496 257.031C199.656 256.991 198.816 257.071 197.976 257.271C197.136 257.471 196.436 257.791 195.876 258.231C195.316 258.671 195.036 259.251 195.036 259.971C195.036 260.491 195.296 261.031 195.816 261.591C196.376 262.151 197.456 262.591 199.056 262.911L206.256 264.471C208.776 264.991 210.876 265.771 212.556 266.811C214.236 267.811 215.496 269.091 216.336 270.651C217.176 272.171 217.596 273.971 217.596 276.051C217.596 278.891 216.836 281.331 215.316 283.371C213.796 285.371 211.656 286.911 208.896 287.991C206.136 289.031 202.876 289.551 199.116 289.551Z" fill="url(#paint1_linear_383_11253)"/>
</g>
<g filter="url(#filter2_d_383_11253)">
<path d="M109.379 10.8776C80.0633 33.8751 48.5611 48.0319 16.3166 52.6989C20.6735 69.6838 51.6305 154.704 143.527 224.759C146.011 225.4 203.397 180.63 234.889 149.929C233.819 152.493 137.068 92.7897 109.379 10.8776Z" fill="url(#paint2_linear_383_11253)"/>
</g>
<path d="M115.727 60.3645C114.094 58.4759 111.507 58.1425 108.996 59.4972L60.3217 85.7555C57.8208 87.1047 56.5041 90.8153 57.6867 93.1816C58.7962 95.4015 61.1963 96.02 63.5299 94.6872L114.343 65.6661C116.176 64.6193 116.925 61.7505 115.727 60.3645Z" fill="#C9DFFF"/>
<path d="M114.647 94.4415C113.183 92.1485 110.461 91.6093 107.824 93.0896L74.8331 111.603C72.701 112.8 71.5938 115.967 72.5972 117.999C73.5527 119.935 75.6343 120.482 77.6623 119.331L113.19 99.1596C114.783 98.255 115.533 95.8281 114.647 94.4415Z" fill="#C9DFFF"/>
<path d="M133.817 111.37C132.256 109.286 129.601 108.929 127.071 110.463L88.4999 133.838C86.3597 135.135 85.3322 138.449 86.4549 140.433C87.4704 142.228 89.4904 142.647 91.424 141.464L132.494 116.333C134.135 115.329 134.829 112.722 133.817 111.37Z" fill="#C9DFFF"/>
<path d="M147.952 162.487C146.607 160.009 143.889 159.435 141.299 161.084L120.233 174.488C118.29 175.724 117.294 178.742 118.174 180.728C119.086 182.788 121.192 183.336 123.204 182.037L146.629 166.909C148.016 166.013 148.673 163.817 147.952 162.487Z" fill="#C9DFFF"/>
<path d="M162.487 122.633C160.802 120.87 158.235 120.696 155.801 122.18L104.174 153.656C101.914 155.034 100.916 158.597 102.247 160.536C103.33 162.114 105.262 162.41 107.1 161.281L161.254 128.017C163.073 126.9 163.748 123.952 162.487 122.633Z" fill="#C9DFFF"/>
<path d="M145.071 96.0651L145.02 91.7009L137.298 91.7913C129.757 91.8797 122.819 87.826 119.194 81.2128L114.834 73.2606C114.553 72.7469 114.683 72.2858 114.786 72.0571C114.89 71.8285 115.147 71.4239 115.718 71.2931L129.069 68.233L128.094 63.9789L114.743 67.0389C112.98 67.4426 111.545 68.6207 110.805 70.2702C110.064 71.9198 110.139 73.7744 111.007 75.36L115.367 83.3112C119.769 91.3415 128.192 96.2637 137.35 96.1564L145.071 96.0651Z" fill="#3E799D"/>
<path d="M159.628 92.7285L166.62 89.4464C174.909 85.5555 180.349 77.4556 180.814 68.3102L181.276 59.2534C181.368 57.4486 180.626 55.7454 179.241 54.5833C177.856 53.4212 176.051 52.9865 174.289 53.3902L160.937 56.4502L161.912 60.7044L175.264 57.6443C175.835 57.5135 176.242 57.7657 176.435 57.9266C176.628 58.0875 176.946 58.446 176.917 59.0313L176.456 68.0882C176.072 75.6207 171.593 82.2912 164.766 85.4953L157.775 88.7774L159.628 92.7285Z" fill="#3E799D"/>
<path d="M119.146 60.8821L122.018 73.4149C125.344 87.9304 135.182 100.103 148.688 106.401C148.969 106.533 149.265 106.654 149.555 106.748C153.283 108.088 157.46 107.13 160.235 104.309L160.233 104.301C160.462 104.087 160.668 103.852 160.871 103.608C165.582 97.8266 168.823 91.1382 170.469 84.062C172.118 76.9944 172.178 69.5569 170.515 62.2992L167.643 49.7664L119.146 60.8821Z" fill="#3E799D"/>
<path d="M121.946 60.2405L122.559 62.9138C126.51 80.1544 138.195 94.6124 154.237 102.094C154.571 102.251 154.923 102.394 155.267 102.507C157.238 103.215 159.312 103.379 161.3 103.053C161.154 103.236 161.02 103.427 160.873 103.609C160.668 103.853 160.463 104.088 160.235 104.302L160.236 104.31C157.463 107.131 153.285 108.088 149.556 106.749C149.266 106.654 148.97 106.535 148.689 106.402C135.183 100.103 125.345 87.9306 122.019 73.4161L119.147 60.8832L121.946 60.2405Z" fill="#25485E"/>
<path d="M142.445 124.677L146.978 144.459L178.986 137.124L174.453 117.341L163.784 119.786L153.106 122.234L142.445 124.677Z" fill="#3E799D"/>
<path d="M137.739 141.708L138.965 147.058L187.332 135.974L186.105 130.622L169.983 134.318L153.847 138.016L137.739 141.708Z" fill="#25485E"/>
<path d="M138.384 142.254L138.661 143.46L186.038 132.602L185.761 131.396L169.969 135.015L154.164 138.638L138.384 142.254Z" fill="#3E799D"/>
<path d="M149.557 106.749L153.105 122.235L163.783 119.787L160.236 104.31C157.463 107.131 153.285 108.088 149.557 106.749Z" fill="#25485E"/>
<path d="M155.807 107.575L159.35 106.759L162.247 119.346L158.704 120.161L155.807 107.575Z" fill="#3E799D"/>
<path d="M121.493 62.6746L166.311 52.3591L166.68 53.9629L121.862 64.2784L121.493 62.6746Z" fill="#25485E"/>
<path d="M149.682 134.909L149.534 134.268L171.603 129.188L170.187 123.036L148.761 127.968L150.324 134.762L149.682 134.909L149.534 134.268L149.682 134.909L149.04 135.057L147.181 126.979L171.176 121.456L173.183 130.177L149.188 135.7L149.04 135.057L149.682 134.909Z" fill="#25485E"/>
<g filter="url(#filter3_d_383_11253)">
<path fill-rule="evenodd" clip-rule="evenodd" d="M282.622 43.5036C299.484 43.5036 313.43 57.1556 314.262 73.9968C316.156 112.389 318.458 162.816 303.158 187.885C277.587 229.783 202.27 229.435 177.529 186.893C173.127 179.051 170.984 170.778 169.886 162.276C168.459 151.241 177.806 142.031 188.932 142.031C199.871 142.031 207.781 151.089 210.329 161.726C211.359 166.029 213.056 170.127 215.849 173.792C259.116 227.848 255.963 127.473 252.048 73.8727C250.819 57.056 263.216 43.5036 280.078 43.5036H282.622Z" fill="url(#paint3_linear_383_11253)"/>
</g>
<path d="M214.676 16.5797L282.088 60.7045C282.799 61.1686 283.64 61.3923 284.485 61.3406L371.618 55.9643C375.412 55.7302 376.702 50.789 373.508 48.7296L309.181 5.4583C308.46 4.99215 307.604 4.77669 306.749 4.84299L216.531 9.36569C212.785 9.6516 211.534 14.5224 214.676 16.5797Z" fill="#1F3D50"/>
<path d="M238.067 21.5746L228.309 54.2281C228.309 54.2281 241.713 70.4336 275.918 84.6999C277.81 85.4892 279.821 85.9533 281.868 86.0797C291.036 86.6411 318.734 87.8759 339.288 83.925L352.974 38.1261L238.067 21.5746Z" fill="#1F3D50"/>
<path d="M212.675 58.1397C214.069 53.3849 215.463 48.6302 216.858 43.8775C218.252 39.1228 219.619 34.3597 220.991 29.5967C222.371 24.8026 224.219 19.8717 224.72 14.8891C224.844 13.646 223.224 13.5362 222.743 14.483C220.527 18.8483 219.435 23.8869 218.03 28.5587C216.551 33.4854 215.07 38.4101 213.615 43.3451C212.213 48.0957 210.812 52.8483 209.409 57.5989C208.067 62.1486 205.945 67.0318 205.494 71.7554C205.367 73.0793 207.443 73.9764 208.113 72.6753C210.369 68.2831 211.284 62.8758 212.675 58.1397Z" fill="#1F3D50"/>
<path d="M190.157 100.789C192.04 94.7813 200.383 69.3045 209.298 59.7515C210.115 58.8752 211.581 59.4262 211.6 60.6237C211.695 66.4745 211.086 81.3147 204.556 105.078C204.359 105.795 203.609 106.209 202.899 105.998L191.044 102.455C190.333 102.242 189.935 101.494 190.157 100.789Z" fill="#C9DFFF"/>
<path d="M311.831 219.407C311.452 219.57 310.978 219.555 310.657 219.295C310.383 219.072 310.249 218.733 310.121 218.401C309.91 217.856 309.715 217.329 308.941 217.361C308.005 217.4 307.583 218.44 307.367 219.201C307.325 219.352 307.287 219.505 307.253 219.658C307.247 219.685 307.242 219.712 307.236 219.739C307.215 219.836 307.194 219.934 307.175 220.032C307.166 220.078 307.157 220.123 307.148 220.169C307.126 220.284 307.105 220.4 307.083 220.515C306.998 220.977 306.913 221.438 306.778 221.888C306.623 222.405 306.365 222.803 306.037 223.103C306.03 223.109 306.024 223.114 306.017 223.119C305.999 223.136 305.979 223.153 305.96 223.169C305.943 223.183 305.927 223.197 305.91 223.21C305.89 223.226 305.869 223.242 305.849 223.257C305.832 223.269 305.816 223.282 305.799 223.294C305.777 223.309 305.755 223.324 305.733 223.339C305.716 223.35 305.7 223.361 305.683 223.372C305.66 223.387 305.636 223.401 305.612 223.415C305.596 223.424 305.58 223.434 305.563 223.444C305.538 223.458 305.512 223.471 305.487 223.485C305.471 223.493 305.456 223.502 305.44 223.51C305.412 223.523 305.385 223.536 305.357 223.549C305.342 223.556 305.327 223.563 305.312 223.57C305.283 223.583 305.253 223.595 305.222 223.608C305.209 223.613 305.195 223.619 305.182 223.625C305.149 223.638 305.115 223.65 305.081 223.662C305.07 223.666 305.059 223.67 305.048 223.674C305.01 223.687 304.971 223.699 304.933 223.711C304.925 223.713 304.918 223.715 304.911 223.718C304.724 223.773 304.531 223.814 304.333 223.843C304.324 223.845 304.315 223.846 304.307 223.847C304.266 223.852 304.226 223.858 304.185 223.863C304.17 223.864 304.154 223.866 304.139 223.867C304.105 223.871 304.07 223.874 304.035 223.877C304.016 223.879 303.997 223.88 303.977 223.881C303.947 223.884 303.916 223.886 303.885 223.888C303.882 223.888 303.878 223.888 303.874 223.888C303.584 223.904 303.288 223.897 302.992 223.872C302.446 223.826 299.989 223.752 299.396 223.046C299.288 222.916 299.242 222.765 299.282 222.589C299.334 222.363 299.424 222.159 299.533 221.966C299.534 221.963 299.536 221.96 299.538 221.957C299.558 221.923 299.578 221.888 299.599 221.854C299.599 221.853 299.6 221.853 299.6 221.852C299.622 221.816 299.645 221.78 299.668 221.745C299.673 221.738 299.677 221.732 299.681 221.726C299.7 221.697 299.72 221.668 299.74 221.639C299.745 221.631 299.75 221.624 299.755 221.617C299.775 221.587 299.796 221.558 299.816 221.529C299.819 221.525 299.822 221.522 299.824 221.518C299.935 221.362 300.047 221.211 300.151 221.056C300.161 221.041 300.172 221.025 300.182 221.009C300.193 220.993 300.203 220.977 300.213 220.961C300.225 220.943 300.236 220.926 300.246 220.908C300.256 220.892 300.266 220.876 300.275 220.86C300.286 220.842 300.297 220.824 300.307 220.805C300.316 220.789 300.325 220.774 300.333 220.758C300.344 220.739 300.354 220.719 300.364 220.699C300.371 220.684 300.379 220.669 300.387 220.654C300.397 220.632 300.407 220.61 300.417 220.588C300.423 220.575 300.429 220.561 300.434 220.548C300.448 220.515 300.461 220.482 300.472 220.449C300.474 220.444 300.476 220.44 300.477 220.435C300.489 220.4 300.5 220.365 300.51 220.329C300.514 220.316 300.516 220.303 300.519 220.291C300.526 220.265 300.532 220.24 300.537 220.213C300.538 220.208 300.539 220.203 300.54 220.198C300.591 219.922 300.57 219.616 300.433 219.259C300.42 219.226 300.407 219.195 300.393 219.163C300.383 219.142 300.372 219.121 300.361 219.1C300.355 219.089 300.35 219.077 300.344 219.066C300.317 219.014 300.287 218.964 300.255 218.915C300.25 218.907 300.244 218.899 300.238 218.89C300.209 218.847 300.178 218.805 300.145 218.764C300.139 218.756 300.132 218.747 300.125 218.739C300.12 218.732 300.115 218.725 300.109 218.718C300.096 218.703 300.082 218.689 300.068 218.674C300.036 218.638 300.004 218.603 299.97 218.569C299.949 218.548 299.927 218.528 299.905 218.507C299.872 218.477 299.838 218.447 299.804 218.418C299.78 218.399 299.757 218.379 299.732 218.36C299.696 218.332 299.66 218.306 299.622 218.279C299.598 218.262 299.575 218.245 299.55 218.229C299.504 218.198 299.457 218.17 299.41 218.142C299.395 218.134 299.381 218.123 299.365 218.115C299.356 218.109 299.344 218.104 299.334 218.098C299.297 218.077 299.258 218.056 299.218 218.035C299.203 218.027 299.188 218.02 299.173 218.012C299.124 217.987 299.072 217.961 299.019 217.936C299.01 217.932 299.001 217.927 298.991 217.923C298.932 217.895 298.871 217.868 298.809 217.842C298.801 217.838 298.793 217.835 298.785 217.832C298.721 217.805 298.655 217.778 298.588 217.753C298.583 217.751 298.579 217.749 298.574 217.747C298.229 217.618 297.852 217.515 297.484 217.48C297.479 217.479 297.475 217.479 297.47 217.479C297.452 217.477 297.435 217.476 297.417 217.475C297.395 217.473 297.372 217.471 297.35 217.47C297.333 217.469 297.315 217.469 297.298 217.468C297.276 217.468 297.254 217.467 297.231 217.467C297.214 217.467 297.198 217.467 297.181 217.467C297.158 217.468 297.136 217.468 297.114 217.469C297.098 217.47 297.081 217.471 297.065 217.472C297.043 217.474 297.02 217.475 296.998 217.478C296.982 217.479 296.967 217.481 296.952 217.483C296.929 217.486 296.907 217.489 296.884 217.492C296.87 217.495 296.855 217.497 296.84 217.5C296.818 217.504 296.795 217.508 296.773 217.513C296.759 217.516 296.745 217.52 296.731 217.523C296.709 217.529 296.687 217.535 296.665 217.542C296.651 217.545 296.638 217.549 296.625 217.554C296.603 217.561 296.581 217.569 296.559 217.577C296.547 217.582 296.534 217.586 296.522 217.591C296.5 217.601 296.478 217.61 296.457 217.621C296.445 217.626 296.434 217.631 296.423 217.637C296.401 217.648 296.379 217.66 296.357 217.673C296.348 217.678 296.338 217.684 296.328 217.69C296.305 217.704 296.284 217.719 296.262 217.734C296.254 217.74 296.245 217.745 296.237 217.751C296.214 217.769 296.191 217.787 296.169 217.806C296.163 217.811 296.157 217.816 296.151 217.821C296.126 217.844 296.101 217.868 296.078 217.893C296.075 217.895 296.073 217.897 296.07 217.9C296.017 217.956 295.967 218.019 295.922 218.089C295.89 218.138 295.862 218.187 295.836 218.238C295.831 218.248 295.826 218.259 295.821 218.27C295.802 218.309 295.784 218.348 295.768 218.387C295.762 218.403 295.756 218.42 295.75 218.436C295.738 218.47 295.726 218.505 295.715 218.54C295.71 218.558 295.705 218.577 295.7 218.595C295.691 218.629 295.683 218.663 295.676 218.697C295.672 218.716 295.668 218.735 295.665 218.754C295.659 218.788 295.654 218.823 295.65 218.858C295.647 218.876 295.645 218.895 295.643 218.913C295.639 218.951 295.636 218.989 295.634 219.027C295.634 219.042 295.632 219.058 295.632 219.074C295.63 219.127 295.629 219.181 295.63 219.235C295.641 219.75 295.782 220.28 295.875 220.77C295.923 221.024 295.962 221.29 295.943 221.52C295.943 221.521 295.943 221.521 295.943 221.522C295.941 221.544 295.939 221.566 295.936 221.587C295.935 221.592 295.934 221.597 295.934 221.603C295.931 221.619 295.928 221.635 295.925 221.651C295.924 221.657 295.922 221.663 295.921 221.669C295.918 221.684 295.914 221.699 295.91 221.714C295.908 221.719 295.907 221.724 295.905 221.73C295.9 221.749 295.893 221.767 295.886 221.785C295.886 221.786 295.886 221.786 295.886 221.786C295.878 221.805 295.87 221.824 295.861 221.842C295.859 221.845 295.857 221.847 295.856 221.85C295.848 221.865 295.84 221.879 295.831 221.892C295.828 221.896 295.826 221.9 295.823 221.904C295.814 221.917 295.805 221.929 295.795 221.941C295.792 221.944 295.79 221.947 295.787 221.951C295.761 221.98 295.731 222.007 295.698 222.03C295.695 222.032 295.692 222.033 295.69 222.035C295.676 222.045 295.66 222.053 295.645 222.062C295.64 222.064 295.635 222.067 295.63 222.069C295.615 222.076 295.6 222.083 295.583 222.09C295.579 222.091 295.574 222.093 295.569 222.095C295.548 222.103 295.526 222.11 295.503 222.116C295.503 222.116 295.502 222.116 295.502 222.116C295.478 222.122 295.453 222.126 295.426 222.13C295.421 222.131 295.416 222.132 295.411 222.132C295.39 222.135 295.368 222.137 295.346 222.139C295.337 222.139 295.329 222.14 295.32 222.14C295.299 222.141 295.278 222.141 295.256 222.141C295.247 222.141 295.238 222.141 295.228 222.141C295.201 222.14 295.173 222.139 295.145 222.136C295.141 222.136 295.137 222.136 295.133 222.136C295.131 222.135 295.13 222.135 295.128 222.135C295.128 222.135 295.128 222.135 295.128 222.135C294.013 222.033 292.914 221.766 291.877 221.346C291.715 221.281 291.557 221.211 291.406 221.135C291.388 221.126 291.371 221.116 291.354 221.107C291.332 221.096 291.311 221.085 291.29 221.073C291.254 221.054 291.219 221.035 291.185 221.015C291.165 221.003 291.145 220.992 291.126 220.981C291.081 220.954 291.038 220.927 290.995 220.899C290.985 220.893 290.975 220.886 290.965 220.88C290.917 220.848 290.871 220.815 290.825 220.781C290.808 220.768 290.791 220.755 290.774 220.742C290.744 220.718 290.714 220.695 290.685 220.67C290.666 220.655 290.648 220.639 290.63 220.623C290.603 220.6 290.577 220.575 290.551 220.551C290.534 220.534 290.517 220.518 290.5 220.5C290.474 220.474 290.449 220.447 290.425 220.42C290.41 220.404 290.395 220.388 290.381 220.371C290.376 220.366 290.372 220.362 290.368 220.356C290.338 220.321 290.31 220.285 290.283 220.248C290.276 220.239 290.269 220.229 290.262 220.219C290.232 220.177 290.203 220.134 290.176 220.089C290.173 220.085 290.17 220.081 290.168 220.077C290.139 220.029 290.113 219.98 290.088 219.93C290.082 219.918 290.077 219.907 290.071 219.896C290.048 219.845 290.025 219.794 290.005 219.74C290.002 219.731 289.998 219.721 289.995 219.712C289.977 219.661 289.96 219.609 289.945 219.556C289.943 219.548 289.941 219.541 289.939 219.533C289.938 219.529 289.936 219.526 289.935 219.522C289.925 219.481 289.917 219.438 289.908 219.396C289.904 219.374 289.898 219.353 289.894 219.331C289.894 219.331 289.894 219.331 289.894 219.331C289.884 219.271 289.877 219.21 289.871 219.147C289.87 219.137 289.868 219.128 289.867 219.118C289.865 219.09 289.863 219.062 289.861 219.034C289.86 219.021 289.861 219.007 289.86 218.994C289.857 218.923 289.856 218.851 289.856 218.779C289.857 218.767 289.856 218.756 289.856 218.744C289.858 218.658 289.863 218.573 289.869 218.487C289.87 218.472 289.872 218.457 289.873 218.441C289.879 218.368 289.887 218.294 289.895 218.22C289.897 218.205 289.899 218.189 289.901 218.173C289.911 218.089 289.923 218.005 289.935 217.921C289.936 217.919 289.936 217.917 289.936 217.914C289.938 217.903 289.94 217.892 289.942 217.882C289.955 217.793 289.97 217.705 289.984 217.617C289.988 217.593 289.992 217.569 289.996 217.545C290.041 217.272 290.087 216.999 290.133 216.726C290.169 216.519 290.204 216.313 290.24 216.107C290.321 215.635 290.402 215.164 290.481 214.693C290.492 214.628 290.504 214.563 290.514 214.498C290.545 214.31 290.556 214.111 290.534 213.92C290.532 213.907 290.532 213.895 290.53 213.882C290.526 213.851 290.518 213.821 290.512 213.791C290.508 213.771 290.505 213.751 290.5 213.732C290.493 213.706 290.483 213.68 290.474 213.654C290.467 213.633 290.461 213.611 290.452 213.59C290.442 213.565 290.429 213.541 290.417 213.517C290.406 213.497 290.398 213.476 290.386 213.456C290.371 213.431 290.353 213.409 290.336 213.385C290.323 213.367 290.311 213.348 290.296 213.33C290.296 213.33 290.295 213.329 290.295 213.328C290.262 213.29 290.229 213.255 290.195 213.224C290.188 213.217 290.18 213.211 290.173 213.204C290.147 213.181 290.121 213.159 290.095 213.139C290.084 213.131 290.074 213.124 290.063 213.117C290.04 213.1 290.016 213.085 289.993 213.072C289.981 213.065 289.969 213.059 289.957 213.053C289.934 213.041 289.911 213.03 289.888 213.02C289.876 213.015 289.864 213.011 289.852 213.006C289.829 212.998 289.805 212.991 289.781 212.984C289.77 212.981 289.758 212.978 289.746 212.976C289.721 212.97 289.695 212.966 289.669 212.963C289.66 212.962 289.65 212.96 289.64 212.959C289.609 212.956 289.577 212.955 289.546 212.955C289.541 212.955 289.537 212.955 289.532 212.955C289.459 212.957 289.384 212.967 289.309 212.983C289.3 212.985 289.291 212.988 289.282 212.99C289.254 212.996 289.226 213.004 289.198 213.012C289.187 213.015 289.175 213.019 289.163 213.023C289.138 213.031 289.112 213.04 289.086 213.049C289.073 213.054 289.061 213.059 289.048 213.064C289.023 213.073 288.998 213.084 288.972 213.095C288.96 213.1 288.947 213.105 288.934 213.111C288.908 213.122 288.883 213.134 288.857 213.147C288.845 213.152 288.833 213.158 288.821 213.164C288.793 213.177 288.765 213.191 288.737 213.206C288.727 213.211 288.717 213.216 288.707 213.221C288.673 213.239 288.639 213.257 288.605 213.276C288.601 213.278 288.598 213.28 288.594 213.282C288.557 213.303 288.519 213.323 288.482 213.345C288.481 213.345 288.48 213.346 288.479 213.346C288.472 213.35 288.465 213.355 288.458 213.359C288.408 213.387 288.359 213.416 288.309 213.444C288.247 213.48 288.185 213.516 288.124 213.55C288.117 213.554 288.11 213.558 288.103 213.562C288.047 213.593 287.991 213.624 287.936 213.653C287.93 213.656 287.924 213.659 287.918 213.663C287.804 213.722 287.691 213.775 287.58 213.816C287.575 213.819 287.569 213.821 287.563 213.823C287.51 213.843 287.458 213.859 287.406 213.873C287.397 213.875 287.389 213.877 287.381 213.879C287.329 213.891 287.278 213.901 287.227 213.907C287.22 213.908 287.213 213.908 287.207 213.908C287.154 213.913 287.101 213.915 287.049 213.911C286.994 213.907 286.941 213.898 286.89 213.886C286.874 213.882 286.859 213.876 286.843 213.872C286.809 213.862 286.775 213.852 286.742 213.839C286.738 213.837 286.732 213.836 286.728 213.834C286.711 213.827 286.695 213.818 286.679 213.81C286.657 213.8 286.634 213.789 286.612 213.777C286.612 213.777 286.612 213.777 286.612 213.777C286.591 213.765 286.572 213.752 286.552 213.74C286.552 213.739 286.551 213.739 286.55 213.738C286.53 213.725 286.51 213.713 286.491 213.698C286.49 213.698 286.49 213.698 286.49 213.697C286.471 213.683 286.453 213.668 286.435 213.653C286.433 213.652 286.432 213.651 286.431 213.65C286.413 213.635 286.395 213.62 286.378 213.604C286.378 213.604 286.377 213.603 286.377 213.603C286.359 213.587 286.343 213.569 286.326 213.552C286.325 213.55 286.323 213.549 286.322 213.548C286.306 213.531 286.29 213.515 286.275 213.497C286.269 213.491 286.263 213.485 286.257 213.478C286.248 213.467 286.24 213.454 286.23 213.442C286.209 213.416 286.189 213.389 286.17 213.361C286.169 213.36 286.168 213.359 286.167 213.357C286.155 213.34 286.144 213.323 286.132 213.305C286.131 213.304 286.13 213.302 286.129 213.301C286.111 213.272 286.094 213.243 286.076 213.213C286.075 213.21 286.074 213.207 286.072 213.205C286.063 213.188 286.053 213.172 286.044 213.154C286.043 213.153 286.042 213.152 286.042 213.151C286.023 213.115 286.006 213.079 285.99 213.042C285.986 213.035 285.983 213.027 285.979 213.019C285.975 213.011 285.971 213.003 285.968 212.995C285.967 212.994 285.966 212.993 285.966 212.992C285.944 212.94 285.924 212.887 285.905 212.833C285.905 212.831 285.904 212.83 285.904 212.828C285.898 212.812 285.893 212.795 285.888 212.779C285.886 212.772 285.884 212.766 285.882 212.76C285.872 212.728 285.862 212.695 285.853 212.662C285.852 212.66 285.852 212.657 285.851 212.655C285.846 212.634 285.841 212.613 285.836 212.592C285.835 212.588 285.834 212.585 285.833 212.581C285.825 212.55 285.818 212.519 285.812 212.488C285.811 212.484 285.811 212.481 285.81 212.477C285.806 212.456 285.802 212.434 285.798 212.413C285.798 212.41 285.797 212.407 285.796 212.405C285.791 212.373 285.787 212.341 285.782 212.31C285.782 212.304 285.781 212.298 285.78 212.292C285.778 212.273 285.775 212.254 285.773 212.236C285.773 212.234 285.772 212.232 285.772 212.229C285.768 212.192 285.766 212.154 285.763 212.117C285.762 212.098 285.76 212.08 285.759 212.062C285.727 211.309 285.885 210.548 286.213 209.869C286.214 209.868 286.215 209.866 286.216 209.864C286.249 209.796 286.285 209.729 286.322 209.662C286.327 209.653 286.331 209.644 286.336 209.636C286.342 209.625 286.35 209.614 286.357 209.603C286.386 209.553 286.417 209.503 286.45 209.455C286.458 209.442 286.465 209.429 286.473 209.417C286.48 209.408 286.487 209.399 286.493 209.389C286.501 209.378 286.51 209.367 286.518 209.356C286.518 209.356 286.518 209.356 286.518 209.356C286.549 209.313 286.581 209.272 286.614 209.231C286.615 209.231 286.615 209.23 286.616 209.23C286.618 209.227 286.621 209.223 286.623 209.22C286.623 209.22 286.623 209.22 286.624 209.22C286.66 209.177 286.697 209.136 286.736 209.097C286.737 209.096 286.737 209.096 286.737 209.095C286.746 209.086 286.755 209.078 286.764 209.069C286.764 209.068 286.765 209.068 286.765 209.067C286.845 208.989 286.931 208.917 287.024 208.854C287.025 208.854 287.026 208.853 287.026 208.852C287.036 208.846 287.046 208.84 287.055 208.833C287.056 208.833 287.057 208.832 287.058 208.832C287.103 208.803 287.149 208.776 287.196 208.752C287.199 208.75 287.201 208.748 287.204 208.747C287.659 208.518 288.271 208.551 288.613 208.928C288.622 208.938 288.631 208.948 288.639 208.958C288.645 208.965 288.65 208.973 288.655 208.98C288.674 209.003 288.692 209.028 288.708 209.052C288.713 209.059 288.718 209.065 288.722 209.071C288.724 209.075 288.726 209.079 288.728 209.083C288.755 209.125 288.779 209.169 288.8 209.215C288.803 209.221 288.806 209.228 288.809 209.235C288.83 209.28 288.849 209.327 288.867 209.375C288.868 209.377 288.869 209.379 288.869 209.382C288.889 209.435 288.906 209.489 288.923 209.543C288.923 209.545 288.924 209.546 288.924 209.547C288.941 209.602 288.957 209.658 288.974 209.714C288.98 209.736 288.986 209.757 288.993 209.779C288.998 209.797 289.003 209.815 289.008 209.833C289.015 209.855 289.022 209.877 289.029 209.899C289.041 209.939 289.054 209.979 289.068 210.018C289.072 210.029 289.075 210.039 289.079 210.05C289.094 210.091 289.111 210.131 289.128 210.17C289.133 210.183 289.139 210.195 289.145 210.207C289.166 210.252 289.188 210.295 289.213 210.336C289.214 210.338 289.216 210.34 289.217 210.343C289.218 210.344 289.219 210.344 289.219 210.345C289.242 210.382 289.268 210.418 289.295 210.452C289.31 210.47 289.324 210.488 289.341 210.506C289.341 210.507 289.342 210.508 289.343 210.508C289.732 210.92 290.436 210.879 290.902 210.558C291.369 210.236 291.645 209.708 291.864 209.186C291.882 209.143 291.898 209.1 291.916 209.057C291.954 208.964 291.992 208.872 292.027 208.778C292.033 208.763 292.038 208.748 292.043 208.733C292.085 208.62 292.125 208.507 292.164 208.392C292.176 208.357 292.187 208.322 292.199 208.287C292.232 208.185 292.264 208.083 292.295 207.98C292.303 207.951 292.312 207.922 292.321 207.893C292.359 207.76 292.396 207.626 292.429 207.492C292.569 206.937 292.673 206.357 292.985 205.875C293.444 205.166 294.296 204.788 295.137 204.701C295.139 204.701 295.141 204.701 295.143 204.701C295.144 204.701 295.144 204.7 295.145 204.7C295.148 204.7 295.151 204.7 295.154 204.699C295.158 204.699 295.162 204.699 295.166 204.698C295.173 204.698 295.18 204.697 295.188 204.696C296.354 204.585 297.952 204.807 299.011 205.295C299.514 205.526 300.404 206.278 300.162 206.934C300.024 207.31 299.507 207.564 299.21 207.799C298.897 208.049 298.669 208.414 298.616 208.811C298.559 209.228 298.699 209.672 299.017 209.954C299.218 210.133 299.466 210.252 299.718 210.35C300.263 210.566 300.84 210.7 301.424 210.748C301.703 210.771 302.001 210.765 302.265 210.685C302.542 210.6 302.782 210.433 302.915 210.13C303.162 209.571 302.961 208.881 302.699 208.365C302.523 208.014 302.297 207.631 302.313 207.231C302.316 207.15 302.329 207.069 302.354 206.986C302.369 206.939 302.388 206.894 302.41 206.85C302.417 206.836 302.427 206.823 302.435 206.809C302.451 206.78 302.467 206.752 302.486 206.726C302.497 206.71 302.51 206.696 302.523 206.681C302.541 206.658 302.559 206.635 302.58 206.614C302.594 206.599 302.61 206.585 302.625 206.571C302.639 206.557 302.653 206.543 302.668 206.53C302.674 206.525 302.68 206.521 302.686 206.516C302.711 206.496 302.736 206.478 302.762 206.46C302.78 206.448 302.798 206.434 302.817 206.422C302.845 206.405 302.874 206.39 302.903 206.374C302.922 206.364 302.94 206.354 302.959 206.344C302.992 206.329 303.026 206.316 303.06 206.303C303.077 206.296 303.093 206.289 303.11 206.283C303.161 206.266 303.212 206.251 303.264 206.239C303.665 206.148 304.083 206.203 304.49 206.262C305.529 206.413 306.583 206.605 307.51 207.097C307.569 207.128 307.626 207.16 307.683 207.194C307.7 207.204 307.716 207.214 307.733 207.224C307.773 207.249 307.813 207.273 307.852 207.298C307.875 207.313 307.897 207.329 307.919 207.344C307.952 207.366 307.985 207.388 308.017 207.411C308.04 207.428 308.063 207.446 308.086 207.463C308.116 207.486 308.147 207.508 308.176 207.531C308.2 207.549 308.222 207.569 308.245 207.588C308.273 207.611 308.302 207.634 308.329 207.658C308.352 207.678 308.374 207.699 308.396 207.719C308.423 207.744 308.45 207.768 308.476 207.793C308.498 207.814 308.519 207.836 308.54 207.857C308.566 207.883 308.591 207.908 308.616 207.934C308.637 207.957 308.657 207.98 308.678 208.004C308.701 208.03 308.725 208.055 308.747 208.082C308.748 208.083 308.75 208.085 308.751 208.086C308.772 208.112 308.792 208.138 308.813 208.165C308.832 208.188 308.851 208.211 308.869 208.235C308.891 208.263 308.91 208.293 308.931 208.322C308.948 208.346 308.965 208.37 308.982 208.394C309.002 208.424 309.02 208.455 309.039 208.486C309.054 208.51 309.07 208.534 309.085 208.559C309.103 208.591 309.119 208.623 309.136 208.654C309.149 208.68 309.164 208.704 309.177 208.73C309.193 208.763 309.208 208.797 309.223 208.83C309.234 208.856 309.247 208.88 309.258 208.906C309.273 208.943 309.287 208.981 309.301 209.019C309.309 209.042 309.318 209.064 309.326 209.087C309.341 209.129 309.352 209.171 309.365 209.214C309.37 209.234 309.377 209.253 309.383 209.273C309.399 209.336 309.413 209.4 309.425 209.464C309.661 210.743 308.955 211.999 308.841 213.294C308.802 213.743 308.839 214.216 309.068 214.605C309.093 214.649 309.122 214.69 309.153 214.731C309.16 214.739 309.166 214.748 309.173 214.757C309.179 214.764 309.185 214.773 309.191 214.78C309.211 214.803 309.232 214.825 309.253 214.846C309.263 214.857 309.273 214.868 309.283 214.878C309.321 214.915 309.361 214.95 309.403 214.981C309.412 214.988 309.421 214.993 309.43 214.999C309.464 215.024 309.499 215.047 309.535 215.067C309.551 215.077 309.567 215.084 309.583 215.093C309.614 215.108 309.645 215.123 309.676 215.135C309.694 215.143 309.713 215.149 309.732 215.155C309.763 215.166 309.794 215.175 309.826 215.182C309.845 215.187 309.864 215.191 309.883 215.195C309.917 215.2 309.952 215.204 309.987 215.206C310.003 215.207 310.02 215.209 310.036 215.209C310.088 215.209 310.14 215.206 310.191 215.197C310.795 215.09 311.166 214.403 311.769 214.297C311.816 214.289 311.863 214.285 311.908 214.285C311.924 214.284 311.938 214.286 311.953 214.286C311.984 214.287 312.014 214.289 312.044 214.293C312.061 214.295 312.078 214.299 312.095 214.302C312.121 214.308 312.148 214.314 312.174 214.321C312.192 214.326 312.209 214.332 312.226 214.338C312.251 214.347 312.276 214.357 312.301 214.368C312.318 214.375 312.334 214.383 312.35 214.391C312.375 214.403 312.4 214.417 312.424 214.432C312.439 214.441 312.454 214.449 312.468 214.459C312.494 214.477 312.52 214.496 312.545 214.515C312.557 214.524 312.568 214.532 312.58 214.541C312.616 214.571 312.651 214.603 312.685 214.636C312.687 214.639 312.689 214.641 312.691 214.643C312.723 214.675 312.753 214.708 312.783 214.743C312.785 214.745 312.787 214.748 312.789 214.75C312.812 214.777 312.834 214.805 312.855 214.834C312.857 214.836 312.859 214.839 312.861 214.841C312.886 214.875 312.91 214.911 312.933 214.947C312.941 214.958 312.948 214.97 312.955 214.982C312.971 215.007 312.986 215.032 313 215.058C313.008 215.072 313.016 215.086 313.024 215.101C313.037 215.125 313.049 215.149 313.061 215.173C313.069 215.188 313.076 215.204 313.083 215.219C313.094 215.243 313.105 215.268 313.116 215.293C313.122 215.308 313.128 215.323 313.134 215.338C313.145 215.365 313.155 215.392 313.164 215.419C313.169 215.432 313.174 215.445 313.178 215.458C313.192 215.498 313.204 215.538 313.215 215.577C313.409 216.297 313.373 217.075 313.128 217.779C313.03 218.062 312.898 218.333 312.734 218.582C312.508 218.928 312.212 219.244 311.831 219.407Z" fill="#4585AC"/>
<path d="M287.205 208.747C287.66 208.518 288.272 208.551 288.614 208.928C288.623 208.938 288.632 208.948 288.64 208.958C288.671 208.994 288.698 209.032 288.723 209.071C288.725 209.075 288.727 209.079 288.729 209.083C288.755 209.125 288.779 209.169 288.801 209.214C288.804 209.221 288.807 209.228 288.81 209.235C288.831 209.28 288.85 209.327 288.867 209.374C288.868 209.377 288.869 209.379 288.87 209.381C288.889 209.434 288.907 209.488 288.924 209.543C288.924 209.544 288.924 209.545 288.925 209.547C288.942 209.602 288.958 209.657 288.974 209.713C288.98 209.735 288.987 209.757 288.993 209.779C288.999 209.797 289.004 209.815 289.009 209.833C289.016 209.855 289.023 209.877 289.029 209.899C289.042 209.939 289.055 209.979 289.069 210.018C289.072 210.029 289.076 210.039 289.08 210.05C289.095 210.091 289.111 210.131 289.129 210.17C289.134 210.183 289.14 210.195 289.145 210.207C289.166 210.251 289.188 210.295 289.214 210.336C289.214 210.336 289.214 210.337 289.214 210.337C289.242 210.383 289.273 210.426 289.307 210.467C289.319 210.481 289.331 210.495 289.344 210.508C289.733 210.92 290.437 210.879 290.902 210.557C291.37 210.235 291.646 209.708 291.865 209.185C291.921 209.054 291.974 208.921 292.024 208.787C292.025 208.784 292.026 208.781 292.028 208.778C292.033 208.763 292.038 208.748 292.044 208.733C292.086 208.62 292.126 208.506 292.165 208.392C292.177 208.357 292.188 208.322 292.199 208.287C292.233 208.185 292.265 208.082 292.295 207.979C292.304 207.95 292.313 207.921 292.321 207.892C292.36 207.76 292.397 207.626 292.43 207.492C292.57 206.936 292.674 206.356 292.985 205.875C293.445 205.166 294.297 204.788 295.138 204.701C295.14 204.701 295.142 204.701 295.144 204.7C295.144 204.7 295.145 204.7 295.146 204.7C295.149 204.7 295.152 204.699 295.154 204.699C295.158 204.699 295.162 204.698 295.166 204.698C295.174 204.697 295.181 204.697 295.188 204.696C295.167 205.108 295.009 205.552 294.778 206.073C293.517 208.916 292.7 211.955 292.367 215.046C292.276 215.888 292.285 216.873 292.801 217.489C292.889 217.594 292.991 217.688 293.111 217.768C293.312 217.903 293.555 217.989 293.795 217.959C294.456 217.877 294.71 217.084 295.042 216.506C295.542 215.633 296.489 215.077 297.475 214.873C298.461 214.671 299.487 214.787 300.469 215.011C301.135 215.163 301.873 215.467 302.288 215.963C302.484 216.196 302.608 216.471 302.62 216.792C302.638 217.344 302.298 217.844 302.228 218.392C302.168 218.852 302.326 219.326 302.623 219.681C302.782 219.87 302.981 220.025 303.209 220.125C304.473 220.676 305.91 219.547 307.253 219.657C307.247 219.684 307.242 219.711 307.236 219.738C307.215 219.836 307.195 219.934 307.175 220.032C307.167 220.077 307.157 220.123 307.149 220.168C307.127 220.284 307.105 220.399 307.084 220.515C306.999 220.977 306.913 221.438 306.779 221.887C306.624 222.405 306.366 222.803 306.037 223.103C306.031 223.108 306.024 223.113 306.018 223.119C305.999 223.136 305.98 223.152 305.96 223.169C305.944 223.182 305.928 223.196 305.911 223.21C305.891 223.226 305.87 223.241 305.849 223.257C305.833 223.269 305.816 223.282 305.799 223.294C305.778 223.309 305.756 223.324 305.733 223.339C305.717 223.35 305.7 223.361 305.684 223.372C305.66 223.386 305.636 223.4 305.613 223.415C305.596 223.424 305.58 223.434 305.564 223.443C305.539 223.458 305.513 223.471 305.487 223.485C305.472 223.493 305.456 223.501 305.44 223.509C305.413 223.523 305.385 223.536 305.358 223.549C305.343 223.556 305.328 223.563 305.313 223.57C305.283 223.583 305.253 223.595 305.223 223.607C305.209 223.613 305.196 223.619 305.182 223.624C305.149 223.637 305.115 223.649 305.082 223.661C305.071 223.665 305.06 223.669 305.048 223.673C305.01 223.686 304.972 223.698 304.933 223.71C304.926 223.712 304.919 223.715 304.911 223.717C304.725 223.773 304.531 223.814 304.333 223.843C304.324 223.844 304.316 223.845 304.307 223.846C304.267 223.852 304.226 223.858 304.185 223.862C304.17 223.864 304.155 223.865 304.14 223.867C304.105 223.87 304.071 223.874 304.036 223.877C304.017 223.879 303.997 223.88 303.978 223.881C303.947 223.883 303.917 223.886 303.886 223.887C303.882 223.888 303.878 223.888 303.875 223.888C303.584 223.904 303.288 223.897 302.993 223.871C302.447 223.826 299.989 223.751 299.397 223.045C299.288 222.916 299.242 222.765 299.282 222.589C299.334 222.363 299.424 222.158 299.533 221.966C299.535 221.963 299.537 221.96 299.538 221.957C299.558 221.922 299.579 221.888 299.6 221.853C299.6 221.853 299.6 221.853 299.6 221.852C299.623 221.816 299.646 221.78 299.669 221.744C299.673 221.738 299.677 221.732 299.681 221.726C299.701 221.696 299.72 221.667 299.74 221.638C299.745 221.631 299.75 221.624 299.755 221.616C299.776 221.587 299.796 221.558 299.817 221.529C299.819 221.525 299.822 221.521 299.825 221.517C299.935 221.362 300.048 221.21 300.151 221.056C300.162 221.04 300.172 221.025 300.183 221.009C300.193 220.993 300.204 220.977 300.214 220.96C300.225 220.943 300.236 220.925 300.247 220.908C300.257 220.892 300.266 220.876 300.276 220.86C300.287 220.842 300.297 220.823 300.308 220.805C300.317 220.789 300.325 220.773 300.334 220.758C300.344 220.738 300.354 220.719 300.364 220.699C300.372 220.684 300.38 220.669 300.387 220.654C300.398 220.632 300.407 220.61 300.417 220.588C300.423 220.574 300.429 220.561 300.435 220.547C300.449 220.515 300.461 220.482 300.473 220.449C300.475 220.444 300.476 220.44 300.478 220.435C300.49 220.4 300.501 220.364 300.511 220.328C300.514 220.316 300.517 220.303 300.52 220.291C300.526 220.265 300.532 220.239 300.537 220.213C300.538 220.208 300.54 220.203 300.541 220.198C300.592 219.922 300.571 219.616 300.433 219.258C300.421 219.226 300.408 219.194 300.393 219.163C300.384 219.141 300.372 219.121 300.362 219.099C300.356 219.088 300.351 219.077 300.345 219.066C300.317 219.014 300.288 218.964 300.256 218.915C300.25 218.906 300.244 218.898 300.239 218.89C300.209 218.847 300.178 218.805 300.146 218.764C300.139 218.755 300.133 218.747 300.126 218.738C300.12 218.732 300.115 218.725 300.11 218.718C300.097 218.703 300.082 218.689 300.069 218.674C300.037 218.638 300.005 218.603 299.971 218.569C299.949 218.548 299.927 218.527 299.905 218.507C299.873 218.476 299.839 218.447 299.805 218.418C299.781 218.398 299.757 218.379 299.733 218.36C299.697 218.332 299.66 218.305 299.623 218.279C299.599 218.262 299.575 218.245 299.551 218.228C299.505 218.198 299.458 218.17 299.411 218.142C299.396 218.133 299.381 218.123 299.366 218.114C299.356 218.109 299.345 218.103 299.335 218.098C299.297 218.077 299.258 218.056 299.218 218.035C299.203 218.027 299.189 218.019 299.173 218.012C299.124 217.986 299.073 217.961 299.02 217.936C299.01 217.932 299.001 217.927 298.992 217.923C298.933 217.895 298.872 217.868 298.809 217.841C298.801 217.838 298.794 217.835 298.786 217.831C298.722 217.804 298.656 217.778 298.589 217.753C298.584 217.751 298.579 217.749 298.574 217.747C298.23 217.618 297.852 217.515 297.485 217.479C297.48 217.479 297.475 217.479 297.47 217.478C297.453 217.477 297.435 217.476 297.418 217.474C297.395 217.473 297.373 217.471 297.35 217.47C297.333 217.469 297.316 217.469 297.299 217.468C297.276 217.467 297.254 217.467 297.232 217.467C297.215 217.467 297.198 217.467 297.182 217.467C297.159 217.467 297.137 217.468 297.114 217.469C297.098 217.47 297.082 217.471 297.066 217.472C297.043 217.473 297.021 217.475 296.999 217.477C296.983 217.479 296.968 217.481 296.952 217.483C296.93 217.485 296.907 217.488 296.885 217.492C296.87 217.494 296.855 217.497 296.84 217.499C296.818 217.504 296.796 217.508 296.774 217.513C296.76 217.516 296.745 217.519 296.731 217.523C296.709 217.529 296.687 217.535 296.665 217.541C296.652 217.545 296.639 217.549 296.625 217.553C296.603 217.561 296.581 217.569 296.56 217.577C296.547 217.582 296.535 217.586 296.523 217.591C296.501 217.6 296.479 217.61 296.457 217.62C296.446 217.626 296.435 217.631 296.424 217.636C296.401 217.648 296.38 217.66 296.358 217.672C296.348 217.678 296.338 217.684 296.329 217.689C296.306 217.703 296.284 217.718 296.262 217.734C296.254 217.74 296.246 217.745 296.238 217.751C296.214 217.768 296.192 217.787 296.17 217.806C296.164 217.811 296.158 217.816 296.152 217.821C296.126 217.843 296.102 217.867 296.078 217.892C296.076 217.895 296.073 217.897 296.071 217.9C296.018 217.956 295.968 218.019 295.923 218.088C295.891 218.137 295.863 218.187 295.837 218.237C295.831 218.248 295.827 218.259 295.821 218.27C295.803 218.309 295.785 218.347 295.769 218.387C295.762 218.403 295.757 218.419 295.751 218.435C295.738 218.47 295.726 218.505 295.716 218.54C295.711 218.558 295.706 218.576 295.701 218.595C295.692 218.628 295.684 218.662 295.677 218.697C295.673 218.716 295.669 218.734 295.666 218.754C295.659 218.788 295.654 218.823 295.65 218.857C295.648 218.876 295.645 218.894 295.643 218.913C295.639 218.951 295.637 218.989 295.635 219.026C295.634 219.042 295.633 219.058 295.632 219.073C295.63 219.127 295.63 219.181 295.631 219.235C295.642 219.749 295.782 220.28 295.875 220.769C295.923 221.023 295.962 221.29 295.944 221.52C295.944 221.52 295.944 221.521 295.944 221.521C295.942 221.543 295.939 221.565 295.936 221.587C295.936 221.592 295.935 221.597 295.934 221.602C295.932 221.618 295.929 221.635 295.926 221.65C295.924 221.656 295.923 221.663 295.922 221.669C295.918 221.684 295.914 221.699 295.91 221.714C295.909 221.719 295.907 221.724 295.906 221.729C295.9 221.748 295.894 221.767 295.887 221.785C295.887 221.785 295.887 221.786 295.886 221.786C295.879 221.805 295.87 221.824 295.861 221.842C295.86 221.844 295.858 221.847 295.856 221.85C295.849 221.864 295.84 221.878 295.832 221.892C295.829 221.896 295.826 221.9 295.823 221.904C295.815 221.916 295.805 221.929 295.796 221.94C295.793 221.944 295.79 221.947 295.787 221.95C295.761 221.98 295.732 222.006 295.698 222.03C295.696 222.031 295.693 222.033 295.69 222.035C295.676 222.044 295.661 222.053 295.645 222.061C295.641 222.064 295.636 222.066 295.631 222.069C295.616 222.076 295.6 222.083 295.584 222.089C295.579 222.091 295.574 222.093 295.569 222.095C295.548 222.102 295.526 222.109 295.503 222.115C295.503 222.115 295.503 222.115 295.503 222.115C295.479 222.121 295.453 222.126 295.427 222.13C295.422 222.131 295.416 222.131 295.411 222.132C295.39 222.135 295.369 222.137 295.346 222.138C295.338 222.139 295.329 222.139 295.321 222.14C295.3 222.141 295.278 222.141 295.256 222.141C295.247 222.141 295.238 222.141 295.229 222.141C295.202 222.14 295.174 222.138 295.145 222.136C295.141 222.136 295.138 222.136 295.134 222.135C295.132 222.135 295.13 222.135 295.128 222.135C295.128 222.135 295.128 222.135 295.128 222.135C294.013 222.032 292.914 221.766 291.878 221.346C291.716 221.281 291.558 221.211 291.406 221.134C291.389 221.125 291.372 221.116 291.354 221.107C291.333 221.096 291.311 221.085 291.29 221.073C291.255 221.054 291.22 221.034 291.185 221.014C291.165 221.003 291.146 220.992 291.126 220.981C291.082 220.954 291.038 220.927 290.996 220.899C290.986 220.892 290.975 220.886 290.965 220.879C290.918 220.848 290.871 220.815 290.826 220.781C290.808 220.768 290.792 220.755 290.775 220.742C290.744 220.718 290.714 220.694 290.685 220.67C290.667 220.655 290.649 220.639 290.631 220.623C290.604 220.599 290.578 220.575 290.552 220.55C290.535 220.534 290.517 220.517 290.501 220.5C290.475 220.474 290.45 220.447 290.425 220.42C290.41 220.403 290.395 220.387 290.381 220.371C290.377 220.366 290.372 220.361 290.368 220.356C290.339 220.321 290.311 220.285 290.283 220.248C290.276 220.239 290.27 220.229 290.263 220.219C290.232 220.177 290.203 220.133 290.176 220.089C290.174 220.085 290.171 220.081 290.168 220.076C290.14 220.029 290.114 219.98 290.089 219.929C290.083 219.918 290.077 219.907 290.072 219.895C290.048 219.845 290.026 219.793 290.006 219.74C290.002 219.731 289.999 219.721 289.996 219.711C289.977 219.661 289.96 219.609 289.946 219.555C289.944 219.548 289.941 219.54 289.939 219.533C289.938 219.529 289.937 219.526 289.936 219.522C289.903 219.395 289.88 219.261 289.868 219.118C289.865 219.09 289.863 219.062 289.862 219.033C289.861 219.02 289.862 219.007 289.861 218.994C289.858 218.922 289.856 218.851 289.857 218.779C289.857 218.767 289.857 218.755 289.857 218.744C289.859 218.658 289.863 218.572 289.87 218.487C289.871 218.471 289.872 218.456 289.873 218.441C289.88 218.367 289.887 218.294 289.896 218.22C289.898 218.204 289.899 218.189 289.901 218.173C289.912 218.089 289.923 218.005 289.936 217.921C289.936 217.919 289.936 217.916 289.937 217.914C289.955 217.791 289.976 217.668 289.996 217.545C290.041 217.272 290.087 216.998 290.134 216.725C290.169 216.519 290.205 216.313 290.24 216.106C290.276 215.902 290.311 215.697 290.346 215.493C290.403 215.161 290.46 214.829 290.515 214.498C290.581 214.096 290.563 213.646 290.301 213.335C290.299 213.333 290.297 213.33 290.295 213.328C289.75 212.691 289.113 212.985 288.477 213.348C288.471 213.351 288.464 213.355 288.458 213.358C288.409 213.387 288.359 213.415 288.31 213.444C288.248 213.48 288.186 213.515 288.124 213.55C288.117 213.554 288.11 213.558 288.103 213.562C288.048 213.593 287.992 213.624 287.936 213.653C287.93 213.656 287.924 213.659 287.918 213.662C287.805 213.721 287.692 213.774 287.581 213.816C287.575 213.818 287.569 213.821 287.563 213.823C287.511 213.842 287.458 213.859 287.406 213.872C287.398 213.874 287.39 213.877 287.381 213.879C287.329 213.891 287.278 213.901 287.227 213.906C287.221 213.907 287.214 213.907 287.207 213.908C287.154 213.913 287.102 213.915 287.05 213.911C286.995 213.906 286.942 213.898 286.891 213.886C286.874 213.882 286.859 213.876 286.844 213.872C286.809 213.862 286.775 213.852 286.743 213.839C286.738 213.837 286.733 213.836 286.728 213.834C286.546 213.759 286.389 213.634 286.258 213.478C285.948 213.108 285.78 212.559 285.76 212.061C285.728 211.308 285.885 210.548 286.214 209.869C286.252 209.79 286.293 209.712 286.336 209.636C286.343 209.624 286.351 209.614 286.357 209.603C286.387 209.552 286.418 209.503 286.45 209.455C286.458 209.442 286.465 209.429 286.474 209.417C286.666 209.139 286.905 208.897 287.205 208.747Z" fill="#2F729B"/>
<path d="M312.398 215.909C312.304 215.798 312.185 215.715 312.039 215.682C311.671 215.602 311.334 215.88 311.005 216.065C310.061 216.599 308.762 216.305 308.074 215.485C307.965 215.355 307.871 215.211 307.796 215.056C307.268 213.951 307.684 212.646 307.604 211.423C307.544 210.506 307.16 209.635 306.57 208.933C305.805 208.021 304.695 207.392 303.503 207.311C303.106 207.284 302.703 207.31 302.313 207.231C302.316 207.15 302.329 207.069 302.354 206.987C302.369 206.939 302.388 206.894 302.41 206.851C302.417 206.836 302.427 206.823 302.435 206.809C302.451 206.78 302.467 206.752 302.486 206.726C302.497 206.71 302.51 206.696 302.522 206.681C302.541 206.658 302.559 206.635 302.579 206.614C302.594 206.599 302.609 206.585 302.625 206.571C302.639 206.557 302.652 206.543 302.667 206.53C302.673 206.525 302.68 206.521 302.686 206.516C302.71 206.496 302.736 206.478 302.761 206.461C302.78 206.448 302.798 206.434 302.817 206.422C302.845 206.405 302.874 206.39 302.903 206.374C302.922 206.364 302.94 206.354 302.959 206.345C302.992 206.329 303.026 206.316 303.06 206.303C303.076 206.297 303.093 206.289 303.109 206.283C303.16 206.266 303.212 206.251 303.264 206.239C303.665 206.148 304.083 206.203 304.49 206.262C305.528 206.414 306.583 206.605 307.51 207.097C307.568 207.128 307.626 207.16 307.683 207.194C307.7 207.204 307.716 207.214 307.732 207.224C307.772 207.249 307.813 207.273 307.852 207.298C307.875 207.313 307.897 207.329 307.919 207.344C307.952 207.366 307.985 207.388 308.017 207.411C308.04 207.428 308.063 207.446 308.086 207.463C308.116 207.486 308.147 207.508 308.176 207.531C308.199 207.549 308.222 207.569 308.245 207.588C308.273 207.611 308.302 207.634 308.329 207.658C308.352 207.678 308.374 207.699 308.396 207.719C308.423 207.744 308.45 207.768 308.476 207.793C308.498 207.814 308.519 207.836 308.54 207.857C308.565 207.883 308.591 207.908 308.615 207.934C308.637 207.957 308.657 207.98 308.678 208.004C308.701 208.03 308.724 208.055 308.747 208.082C308.748 208.083 308.749 208.085 308.751 208.086C308.772 208.112 308.792 208.139 308.813 208.165C308.832 208.188 308.851 208.211 308.869 208.235C308.89 208.264 308.91 208.293 308.931 208.322C308.948 208.346 308.965 208.37 308.982 208.394C309.001 208.424 309.02 208.455 309.038 208.486C309.054 208.51 309.07 208.534 309.084 208.559C309.102 208.591 309.119 208.623 309.136 208.654C309.149 208.68 309.164 208.705 309.176 208.73C309.193 208.763 309.207 208.797 309.222 208.83C309.234 208.856 309.247 208.881 309.257 208.906C309.273 208.943 309.286 208.981 309.3 209.019C309.309 209.042 309.318 209.064 309.326 209.087C309.34 209.129 309.352 209.171 309.364 209.214C309.37 209.234 309.377 209.253 309.382 209.273C309.399 209.336 309.413 209.4 309.425 209.464C309.661 210.743 308.955 211.999 308.84 213.294C308.801 213.743 308.839 214.216 309.067 214.605C309.093 214.649 309.122 214.69 309.153 214.731C309.159 214.739 309.166 214.748 309.173 214.757C309.179 214.765 309.185 214.773 309.191 214.78C309.21 214.803 309.232 214.825 309.253 214.846C309.263 214.857 309.272 214.868 309.283 214.878C309.321 214.915 309.361 214.95 309.403 214.981C309.411 214.988 309.421 214.993 309.429 214.999C309.463 215.024 309.498 215.047 309.535 215.068C309.55 215.077 309.567 215.084 309.583 215.093C309.614 215.108 309.644 215.123 309.676 215.135C309.694 215.143 309.713 215.149 309.731 215.156C309.763 215.166 309.794 215.175 309.826 215.182C309.845 215.187 309.863 215.191 309.882 215.195C309.917 215.201 309.951 215.204 309.986 215.206C310.003 215.207 310.019 215.209 310.036 215.209C310.088 215.209 310.139 215.206 310.191 215.197C310.795 215.09 311.166 214.403 311.769 214.297C311.816 214.289 311.862 214.285 311.908 214.285C311.923 214.284 311.938 214.286 311.953 214.287C311.983 214.288 312.014 214.289 312.043 214.293C312.061 214.295 312.077 214.299 312.094 214.303C312.121 214.308 312.148 214.314 312.174 214.321C312.192 214.326 312.209 214.332 312.226 214.338C312.251 214.347 312.276 214.357 312.301 214.368C312.317 214.375 312.334 214.383 312.35 214.391C312.375 214.403 312.399 214.417 312.423 214.432C312.438 214.441 312.453 214.45 312.468 214.459C312.494 214.477 312.52 214.496 312.545 214.515C312.556 214.524 312.568 214.532 312.58 214.542C312.616 214.571 312.651 214.603 312.684 214.636C312.687 214.639 312.689 214.641 312.691 214.644C312.723 214.675 312.753 214.709 312.782 214.743C312.784 214.746 312.787 214.748 312.789 214.75C312.811 214.777 312.833 214.805 312.855 214.834C312.857 214.836 312.859 214.839 312.86 214.841C312.886 214.875 312.91 214.911 312.933 214.947C312.941 214.958 312.948 214.97 312.955 214.982C312.97 215.007 312.986 215.032 313 215.058C313.008 215.072 313.016 215.087 313.024 215.101C313.037 215.125 313.049 215.149 313.061 215.173C313.068 215.188 313.076 215.204 313.083 215.219C313.094 215.244 313.105 215.268 313.115 215.293C313.122 215.308 313.128 215.323 313.134 215.338C313.145 215.365 313.155 215.392 313.164 215.419C313.169 215.432 313.174 215.445 313.178 215.458C313.191 215.498 313.204 215.538 313.214 215.578C313.408 216.297 313.373 217.075 313.128 217.779C312.89 217.48 312.736 217.001 312.674 216.59C312.638 216.349 312.55 216.091 312.398 215.909Z" fill="#69A0C2"/>
<path d="M323.187 200.974C323.15 200.999 323.113 201.023 323.074 201.046C323.057 201.056 323.041 201.065 323.024 201.074C322.988 201.095 322.95 201.114 322.912 201.132C322.896 201.139 322.881 201.147 322.864 201.154C322.812 201.178 322.758 201.2 322.702 201.22C322.635 201.244 322.564 201.265 322.491 201.283C322.466 201.29 322.44 201.296 322.415 201.301C322.402 201.304 322.388 201.306 322.375 201.309C322.316 201.321 322.257 201.333 322.197 201.342C322.18 201.345 322.163 201.348 322.146 201.35C322.069 201.362 321.991 201.371 321.913 201.378C321.904 201.379 321.896 201.38 321.887 201.38C321.817 201.387 321.746 201.391 321.676 201.395C321.656 201.396 321.636 201.397 321.616 201.398C321.553 201.401 321.489 201.403 321.425 201.404C321.414 201.404 321.404 201.405 321.393 201.405C321.255 201.407 321.116 201.407 320.977 201.407C319.985 201.407 318.993 201.393 318.003 201.391C317.608 201.391 317.18 201.481 316.926 201.783C316.429 202.374 316.755 202.91 317.172 203.435C317.184 203.45 317.195 203.464 317.207 203.479C317.215 203.488 317.222 203.498 317.23 203.508C317.344 203.648 317.462 203.788 317.57 203.928C317.572 203.93 317.574 203.933 317.576 203.936C317.592 203.957 317.608 203.978 317.623 203.999C317.63 204.007 317.636 204.015 317.642 204.024C317.656 204.043 317.669 204.061 317.682 204.08C317.69 204.09 317.697 204.101 317.705 204.111C317.717 204.129 317.728 204.146 317.74 204.164C317.748 204.176 317.755 204.187 317.763 204.199C317.773 204.216 317.784 204.233 317.794 204.25C317.801 204.262 317.809 204.274 317.816 204.287C317.825 204.303 317.834 204.319 317.843 204.336C317.85 204.349 317.857 204.362 317.863 204.375C317.871 204.391 317.879 204.407 317.887 204.423C317.893 204.436 317.899 204.45 317.904 204.463C317.911 204.479 317.918 204.494 317.924 204.51C317.929 204.524 317.934 204.538 317.938 204.552C317.944 204.568 317.949 204.583 317.953 204.598C317.958 204.613 317.961 204.628 317.965 204.643C317.968 204.657 317.972 204.672 317.975 204.686C317.978 204.705 317.98 204.724 317.983 204.743C317.984 204.753 317.986 204.764 317.987 204.774C317.987 204.777 317.987 204.779 317.987 204.782C317.991 204.824 317.991 204.865 317.989 204.905C317.989 204.918 317.987 204.932 317.986 204.945C317.985 204.961 317.984 204.978 317.982 204.994C317.894 205.667 317.135 206.142 316.433 206.288C315.723 206.436 314.976 206.406 314.279 206.2C313.844 206.072 313.414 205.862 313.124 205.517C313.101 205.49 313.08 205.463 313.059 205.434C312.771 205.038 312.707 204.452 313.011 204.068C313.066 203.998 313.13 203.938 313.2 203.884C313.205 203.88 313.211 203.876 313.217 203.872C313.24 203.855 313.264 203.838 313.289 203.822C313.298 203.817 313.306 203.811 313.315 203.805C313.385 203.761 313.46 203.721 313.536 203.683C313.539 203.681 313.543 203.679 313.546 203.678C313.629 203.636 313.713 203.597 313.797 203.557C313.813 203.549 313.83 203.54 313.847 203.532C313.87 203.52 313.894 203.508 313.917 203.496C313.947 203.481 313.975 203.466 314.004 203.45C314.016 203.443 314.027 203.436 314.039 203.429C314.063 203.415 314.086 203.401 314.109 203.386C314.115 203.382 314.121 203.378 314.127 203.374C314.229 203.306 314.322 203.226 314.397 203.128C314.709 202.717 314.593 202.103 314.26 201.706C314.249 201.693 314.238 201.681 314.226 201.668C314.218 201.658 314.209 201.649 314.2 201.64C314.177 201.616 314.154 201.593 314.13 201.571C313.756 201.225 313.245 201.059 312.747 200.94C312.576 200.899 312.404 200.862 312.232 200.83C312.202 200.824 312.172 200.82 312.142 200.815C312.008 200.79 311.873 200.768 311.739 200.749C311.683 200.741 311.627 200.733 311.572 200.725C311.42 200.706 311.267 200.689 311.114 200.675C311.093 200.673 311.072 200.67 311.05 200.668C310.501 200.623 309.933 200.614 309.428 200.394C309.416 200.389 309.405 200.383 309.393 200.378C309.362 200.364 309.332 200.349 309.302 200.334C309.283 200.324 309.265 200.313 309.247 200.303C309.224 200.29 309.201 200.278 309.179 200.264C309.16 200.253 309.142 200.24 309.123 200.228C309.102 200.215 309.081 200.201 309.06 200.186C309.042 200.173 309.025 200.16 309.007 200.147C308.987 200.132 308.967 200.116 308.947 200.101C308.93 200.087 308.913 200.073 308.896 200.059C308.877 200.042 308.857 200.025 308.838 200.007C308.822 199.993 308.807 199.979 308.792 199.964C308.771 199.944 308.75 199.924 308.73 199.903C308.718 199.89 308.705 199.877 308.692 199.864C308.661 199.831 308.631 199.797 308.602 199.762L308.601 199.761C308.565 199.718 308.531 199.674 308.498 199.63C308.492 199.622 308.486 199.613 308.481 199.605C308.454 199.569 308.429 199.532 308.404 199.495C308.395 199.48 308.386 199.465 308.376 199.45C308.356 199.419 308.336 199.387 308.317 199.354C308.308 199.337 308.298 199.32 308.288 199.303C308.271 199.272 308.254 199.24 308.238 199.208C308.228 199.19 308.219 199.172 308.21 199.153C308.195 199.122 308.18 199.09 308.165 199.057C308.157 199.039 308.148 199.021 308.14 199.002C308.126 198.969 308.112 198.935 308.099 198.901C308.092 198.883 308.085 198.866 308.078 198.848C308.064 198.81 308.051 198.773 308.038 198.735C308.033 198.72 308.028 198.706 308.023 198.692C308.006 198.64 307.99 198.587 307.976 198.534L307.975 198.532C307.973 198.525 307.972 198.518 307.97 198.511C307.968 198.506 307.967 198.5 307.966 198.495C307.965 198.492 307.964 198.489 307.963 198.487C307.675 197.397 307.636 195.844 307.934 194.762C308.074 194.248 308.649 193.286 309.311 193.413C309.689 193.485 310.011 193.936 310.28 194.181C310.567 194.44 310.949 194.599 311.334 194.588C311.74 194.576 312.139 194.374 312.358 194.028C312.496 193.808 312.569 193.555 312.624 193.3C312.744 192.749 312.78 192.18 312.735 191.617C312.713 191.349 312.661 191.067 312.543 190.829C312.419 190.579 312.223 190.378 311.914 190.299C311.345 190.152 310.721 190.45 310.272 190.78C309.966 191.002 309.638 191.276 309.256 191.324C309.195 191.331 309.133 191.331 309.069 191.326C309.052 191.325 309.035 191.325 309.017 191.323C308.932 191.311 308.851 191.284 308.775 191.249C308.498 191.122 308.281 190.862 308.165 190.575C308.016 190.209 308.002 189.803 307.995 189.408C307.992 189.237 307.991 189.066 307.991 188.895C307.991 188.474 308.007 188.052 308.055 187.636C308.102 187.219 308.182 186.808 308.316 186.409C308.545 185.725 308.957 185.078 309.52 184.638C309.744 184.462 309.993 184.319 310.264 184.22C311.441 183.796 312.744 184.27 313.992 184.177C314.1 184.168 314.209 184.155 314.317 184.136C314.49 184.105 314.659 184.057 314.818 183.988C314.956 183.928 315.086 183.853 315.202 183.756C315.494 183.513 315.681 183.12 315.626 182.752C315.619 182.7 315.606 182.647 315.588 182.596C315.392 182.039 314.681 181.795 314.487 181.238C314.303 180.711 314.67 180.18 315.151 179.85C315.256 179.779 315.366 179.716 315.476 179.666C315.724 179.553 315.984 179.471 316.25 179.419C316.448 179.38 316.649 179.359 316.851 179.353C317.095 179.346 317.34 179.362 317.58 179.403C317.864 179.452 318.143 179.535 318.405 179.652C318.769 179.812 319.115 180.045 319.329 180.38C319.544 180.715 319.603 181.168 319.407 181.513C318.962 182.292 317.595 182.27 317.839 183.445C318.022 184.328 319.076 184.566 319.832 184.652C319.982 184.668 320.134 184.68 320.284 184.689C320.311 184.69 320.337 184.691 320.364 184.693C320.451 184.697 320.537 184.701 320.624 184.704C320.669 184.705 320.714 184.706 320.759 184.708C320.847 184.71 320.935 184.712 321.023 184.714C321.143 184.716 321.263 184.718 321.383 184.721C321.386 184.721 321.39 184.721 321.393 184.721C321.409 184.722 321.426 184.723 321.442 184.723C321.451 184.723 321.46 184.723 321.469 184.724C321.548 184.726 321.628 184.728 321.708 184.732C321.71 184.732 321.713 184.732 321.716 184.732C321.747 184.733 321.779 184.735 321.811 184.736C321.815 184.736 321.819 184.737 321.823 184.737C321.898 184.74 321.972 184.745 322.046 184.75C322.049 184.75 322.051 184.751 322.054 184.751C322.084 184.753 322.115 184.755 322.146 184.757C322.148 184.758 322.151 184.758 322.153 184.758C322.259 184.767 322.365 184.777 322.471 184.79C322.473 184.791 322.474 184.791 322.476 184.791C322.48 184.791 322.485 184.792 322.49 184.793C322.539 184.8 322.588 184.807 322.636 184.816C322.653 184.819 322.67 184.823 322.686 184.826C322.689 184.827 322.691 184.827 322.694 184.828C322.726 184.835 322.759 184.841 322.79 184.848C322.81 184.853 322.829 184.859 322.849 184.864C322.85 184.864 322.852 184.865 322.853 184.865C322.881 184.873 322.91 184.88 322.938 184.888C322.959 184.895 322.979 184.902 323 184.909L323.001 184.909C323.027 184.918 323.054 184.926 323.08 184.936C323.083 184.937 323.087 184.938 323.091 184.939C323.104 184.944 323.116 184.95 323.128 184.954C323.161 184.967 323.194 184.98 323.225 184.994C323.243 185.002 323.261 185.01 323.278 185.018C323.307 185.032 323.336 185.046 323.364 185.06C323.382 185.069 323.399 185.078 323.415 185.088C323.443 185.103 323.471 185.119 323.498 185.135C323.514 185.144 323.529 185.154 323.545 185.163C323.574 185.182 323.602 185.201 323.63 185.22C323.642 185.229 323.654 185.237 323.666 185.246C323.705 185.273 323.742 185.302 323.779 185.332C323.78 185.332 323.781 185.333 323.782 185.334C323.82 185.366 323.857 185.398 323.893 185.432C323.901 185.439 323.907 185.446 323.914 185.452C323.943 185.479 323.97 185.506 323.997 185.534C324.007 185.545 324.016 185.555 324.026 185.566C324.05 185.591 324.073 185.617 324.095 185.644C324.1 185.649 324.105 185.654 324.109 185.659C324.113 185.663 324.116 185.668 324.119 185.672C324.162 185.724 324.203 185.777 324.242 185.832C324.243 185.833 324.245 185.835 324.246 185.837C324.285 185.892 324.322 185.949 324.357 186.007C324.361 186.013 324.365 186.019 324.368 186.024C324.403 186.083 324.436 186.142 324.468 186.203C324.472 186.211 324.476 186.22 324.48 186.228C324.544 186.353 324.6 186.483 324.65 186.618C324.653 186.625 324.655 186.633 324.658 186.64C324.682 186.705 324.704 186.772 324.725 186.839C324.728 186.849 324.731 186.859 324.734 186.869C324.755 186.937 324.774 187.006 324.792 187.076C324.809 187.146 324.826 187.216 324.841 187.287C324.842 187.295 324.844 187.302 324.846 187.309C324.846 187.313 324.847 187.316 324.847 187.319C324.871 187.437 324.892 187.556 324.908 187.676L324.909 187.679C324.91 187.687 324.911 187.695 324.912 187.703C324.912 187.705 324.912 187.706 324.913 187.708C324.929 187.825 324.941 187.944 324.951 188.063C324.951 188.067 324.952 188.072 324.952 188.076C325.002 188.699 325.432 191.869 324.315 191.8C324.307 191.8 324.299 191.798 324.292 191.798C324.258 191.795 324.224 191.792 324.19 191.788L324.188 191.788C324.175 191.786 324.162 191.783 324.148 191.781C324.147 191.781 324.145 191.781 324.143 191.781C324.117 191.777 324.091 191.772 324.066 191.768L324.064 191.767C324.049 191.764 324.034 191.761 324.019 191.758L324.017 191.757C323.992 191.752 323.967 191.746 323.942 191.74L323.941 191.739C323.926 191.736 323.912 191.732 323.897 191.728L323.896 191.728C323.869 191.72 323.842 191.712 323.816 191.704C323.807 191.701 323.797 191.699 323.788 191.696C323.785 191.695 323.782 191.693 323.779 191.692C323.749 191.682 323.718 191.672 323.689 191.661C323.682 191.658 323.675 191.656 323.669 191.654C323.631 191.64 323.594 191.625 323.557 191.61C323.551 191.608 323.546 191.605 323.54 191.603C323.509 191.59 323.478 191.577 323.447 191.563C323.438 191.559 323.429 191.555 323.42 191.551C323.392 191.538 323.365 191.526 323.337 191.513C323.328 191.508 323.319 191.504 323.311 191.5C323.281 191.486 323.252 191.472 323.223 191.458C323.218 191.456 323.214 191.454 323.209 191.451C323.043 191.37 322.88 191.286 322.715 191.211C322.703 191.206 322.69 191.2 322.678 191.194C322.661 191.187 322.644 191.18 322.627 191.172C322.609 191.165 322.592 191.157 322.574 191.15C322.557 191.143 322.541 191.137 322.525 191.13C322.506 191.123 322.487 191.115 322.468 191.108C322.452 191.103 322.436 191.097 322.42 191.091C322.401 191.085 322.381 191.078 322.362 191.072C322.346 191.067 322.33 191.062 322.314 191.057C322.294 191.051 322.274 191.045 322.254 191.04C322.238 191.036 322.223 191.032 322.207 191.028C322.186 191.023 322.164 191.018 322.142 191.014C322.128 191.011 322.114 191.007 322.099 191.005C322.074 191 322.048 190.997 322.023 190.993C322.012 190.992 322.001 190.99 321.99 190.989C321.952 190.984 321.915 190.981 321.877 190.98C321.872 190.98 321.867 190.98 321.862 190.98C321.829 190.979 321.796 190.979 321.763 190.98C321.751 190.981 321.739 190.982 321.727 190.983C321.7 190.984 321.674 190.986 321.647 190.99C321.633 190.991 321.619 190.994 321.604 190.996C321.579 190.999 321.553 191.004 321.527 191.009C321.512 191.012 321.497 191.015 321.483 191.019C321.457 191.025 321.43 191.032 321.404 191.039C321.389 191.044 321.374 191.048 321.359 191.053C321.332 191.062 321.304 191.072 321.275 191.082C321.261 191.088 321.248 191.093 321.234 191.098C321.202 191.111 321.169 191.126 321.136 191.142C321.126 191.147 321.116 191.151 321.105 191.156C321.061 191.178 321.017 191.202 320.972 191.228C320.97 191.229 320.969 191.23 320.967 191.231C320.919 191.26 320.873 191.291 320.828 191.324C320.82 191.33 320.812 191.335 320.804 191.341C320.76 191.375 320.717 191.411 320.676 191.449C320.672 191.452 320.669 191.454 320.666 191.457C320.622 191.498 320.58 191.541 320.54 191.585C320.529 191.598 320.518 191.612 320.507 191.625C320.479 191.657 320.452 191.69 320.426 191.725C320.413 191.741 320.401 191.759 320.389 191.776C320.366 191.808 320.343 191.841 320.322 191.875C320.31 191.893 320.299 191.911 320.288 191.929C320.266 191.964 320.246 192 320.226 192.037C320.217 192.053 320.208 192.07 320.199 192.087C320.177 192.13 320.156 192.173 320.136 192.217C320.132 192.228 320.126 192.238 320.122 192.249C320.097 192.306 320.074 192.363 320.053 192.421C320.047 192.436 320.042 192.451 320.037 192.467C320.028 192.49 320.02 192.514 320.012 192.539C320.005 192.558 319.998 192.577 319.992 192.597C319.979 192.637 319.966 192.678 319.954 192.721C319.949 192.737 319.944 192.754 319.939 192.771C319.926 192.816 319.914 192.861 319.902 192.907C319.899 192.918 319.896 192.929 319.893 192.94C319.881 192.987 319.87 193.034 319.859 193.082C319.856 193.095 319.853 193.108 319.85 193.121C319.839 193.175 319.828 193.229 319.817 193.284C319.815 193.297 319.813 193.31 319.81 193.323C319.8 193.38 319.79 193.438 319.782 193.496C319.781 193.502 319.78 193.508 319.779 193.514C319.772 193.57 319.765 193.625 319.759 193.681C319.758 193.692 319.757 193.703 319.756 193.714C319.75 193.772 319.746 193.83 319.743 193.888C319.742 193.901 319.741 193.914 319.741 193.927C319.738 193.986 319.737 194.044 319.737 194.103C319.737 194.111 319.737 194.119 319.737 194.127C319.738 194.181 319.74 194.235 319.743 194.288C319.744 194.299 319.744 194.31 319.745 194.32C319.749 194.376 319.755 194.432 319.762 194.486C319.764 194.5 319.766 194.513 319.768 194.526C319.776 194.581 319.786 194.635 319.798 194.688C319.8 194.697 319.802 194.706 319.805 194.716C319.816 194.764 319.83 194.811 319.844 194.858C319.847 194.867 319.85 194.877 319.853 194.886C319.87 194.936 319.889 194.984 319.91 195.031C319.916 195.043 319.921 195.055 319.927 195.066C319.949 195.113 319.973 195.158 319.999 195.201C320.005 195.209 320.01 195.218 320.016 195.226C320.042 195.266 320.069 195.304 320.099 195.34C320.103 195.345 320.106 195.351 320.11 195.356C320.112 195.358 320.114 195.359 320.115 195.362C320.141 195.392 320.168 195.421 320.197 195.449C320.208 195.459 320.219 195.468 320.23 195.478C320.25 195.496 320.271 195.514 320.293 195.531C320.307 195.542 320.321 195.552 320.336 195.563C320.357 195.578 320.379 195.593 320.402 195.607C320.417 195.616 320.432 195.626 320.448 195.634C320.477 195.651 320.508 195.666 320.54 195.681C320.549 195.685 320.557 195.69 320.566 195.694C320.616 195.716 320.665 195.734 320.715 195.75C320.725 195.753 320.735 195.756 320.745 195.76C320.787 195.773 320.83 195.784 320.872 195.793C320.88 195.795 320.888 195.797 320.896 195.799C320.945 195.809 320.995 195.817 321.045 195.823C321.052 195.824 321.06 195.824 321.067 195.825C321.109 195.829 321.151 195.832 321.193 195.834C321.206 195.834 321.218 195.834 321.23 195.835C321.276 195.835 321.323 195.835 321.369 195.833C321.371 195.832 321.374 195.832 321.377 195.832C321.417 195.83 321.457 195.827 321.497 195.822C322.053 195.762 322.607 195.508 323.12 195.32C323.353 195.235 323.599 195.156 323.82 195.138L323.822 195.138C323.847 195.135 323.871 195.134 323.895 195.134C323.9 195.134 323.905 195.134 323.91 195.134C323.933 195.134 323.956 195.134 323.978 195.136L323.981 195.136C324.005 195.138 324.029 195.141 324.052 195.145C324.055 195.145 324.058 195.146 324.062 195.146C324.084 195.15 324.106 195.155 324.127 195.162L324.128 195.162C324.15 195.169 324.171 195.177 324.192 195.186C324.194 195.187 324.197 195.188 324.199 195.189C324.219 195.198 324.239 195.208 324.257 195.22C324.277 195.233 324.296 195.247 324.313 195.262C324.315 195.264 324.317 195.265 324.318 195.267C324.335 195.282 324.351 195.298 324.367 195.316L324.367 195.317L324.368 195.317C324.378 195.33 324.389 195.344 324.398 195.358L324.4 195.36C324.471 195.465 324.519 195.614 324.533 195.816C324.534 195.823 324.534 195.83 324.534 195.837C324.542 195.944 324.548 196.051 324.552 196.158C324.591 197.12 324.504 198.087 324.293 199.026C324.251 199.212 324.203 199.394 324.145 199.57C324.143 199.575 324.141 199.581 324.139 199.586C324.134 199.602 324.129 199.617 324.123 199.632C324.109 199.672 324.095 199.712 324.08 199.751C324.073 199.77 324.066 199.789 324.059 199.807C324.043 199.847 324.027 199.885 324.01 199.924C324.004 199.938 323.998 199.953 323.991 199.967C323.969 200.018 323.945 200.067 323.92 200.115C323.912 200.13 323.904 200.144 323.896 200.159C323.878 200.194 323.858 200.228 323.838 200.262C323.828 200.279 323.818 200.296 323.807 200.313C323.787 200.347 323.765 200.379 323.743 200.412C323.734 200.425 323.725 200.439 323.716 200.452C323.684 200.496 323.652 200.538 323.618 200.579C323.609 200.59 323.6 200.6 323.591 200.611C323.564 200.642 323.537 200.672 323.508 200.702C323.495 200.715 323.482 200.729 323.469 200.742C323.441 200.769 323.412 200.796 323.383 200.822C323.37 200.833 323.358 200.844 323.346 200.855C323.304 200.889 323.262 200.923 323.217 200.955C323.207 200.961 323.197 200.968 323.187 200.974Z" fill="#4585AC"/>
<path d="M309.335 198.661C312.232 199.414 315.246 199.714 318.234 199.547C319.186 199.493 320.304 199.28 320.702 198.414C320.799 198.202 320.842 197.958 320.776 197.735C320.743 197.621 320.688 197.525 320.618 197.441C320.309 197.073 319.691 196.961 319.202 196.778C318.703 196.592 318.274 196.263 317.931 195.854C317.65 195.519 317.427 195.13 317.27 194.723C316.924 193.818 316.874 192.825 316.933 191.858C316.991 190.893 317.34 189.728 318.288 189.537C318.809 189.434 319.337 189.678 319.868 189.659C320.553 189.635 321.192 189.12 321.36 188.456C321.686 187.17 320.389 185.982 320.284 184.689C320.31 184.69 320.337 184.691 320.364 184.692C320.45 184.697 320.537 184.7 320.623 184.703C320.669 184.705 320.714 184.706 320.759 184.707C320.847 184.71 320.935 184.712 321.023 184.713C321.033 184.714 321.042 184.714 321.052 184.714C321.526 184.723 322.001 184.73 322.471 184.79C322.472 184.79 322.474 184.79 322.476 184.79C322.698 184.819 322.903 184.869 323.091 184.939C323.103 184.944 323.115 184.949 323.128 184.954C323.161 184.967 323.194 184.98 323.225 184.994C323.243 185.001 323.26 185.01 323.278 185.018C323.307 185.031 323.336 185.045 323.364 185.06C323.381 185.069 323.398 185.078 323.415 185.087C323.443 185.103 323.471 185.118 323.498 185.135C323.514 185.144 323.529 185.153 323.544 185.163C323.573 185.181 323.602 185.2 323.63 185.22C323.642 185.228 323.654 185.236 323.666 185.245C323.705 185.273 323.742 185.301 323.778 185.331C323.779 185.332 323.78 185.333 323.781 185.334C323.82 185.365 323.857 185.398 323.893 185.432C323.9 185.438 323.907 185.445 323.914 185.452C323.942 185.479 323.97 185.506 323.997 185.534C324.007 185.544 324.016 185.555 324.026 185.565C324.049 185.591 324.073 185.617 324.095 185.643C324.1 185.648 324.104 185.653 324.109 185.658C324.112 185.663 324.116 185.668 324.119 185.672C324.162 185.723 324.203 185.776 324.242 185.831C324.243 185.833 324.245 185.835 324.246 185.837C324.285 185.892 324.322 185.949 324.357 186.007C324.361 186.012 324.364 186.018 324.368 186.024C324.403 186.082 324.436 186.142 324.467 186.203C324.472 186.211 324.476 186.219 324.48 186.227C324.543 186.352 324.6 186.483 324.65 186.617C324.652 186.625 324.655 186.632 324.658 186.64C324.682 186.705 324.704 186.772 324.725 186.839C324.728 186.849 324.731 186.859 324.734 186.869C324.775 187.005 324.811 187.145 324.84 187.287C324.842 187.294 324.844 187.301 324.845 187.309C324.897 187.559 324.932 187.817 324.952 188.075C325.002 188.698 325.432 191.869 324.315 191.8C324.131 191.788 323.956 191.75 323.788 191.695C323.785 191.694 323.782 191.693 323.779 191.692C323.748 191.682 323.718 191.671 323.688 191.66C323.682 191.658 323.675 191.656 323.668 191.653C323.631 191.639 323.594 191.625 323.557 191.61C323.551 191.607 323.545 191.605 323.54 191.602C323.509 191.589 323.478 191.576 323.447 191.562C323.438 191.558 323.429 191.554 323.42 191.55C323.392 191.538 323.365 191.525 323.337 191.512C323.328 191.508 323.319 191.504 323.31 191.499C323.281 191.486 323.252 191.472 323.223 191.457C323.218 191.455 323.214 191.453 323.209 191.451C323.043 191.369 322.879 191.285 322.715 191.211C322.703 191.205 322.69 191.199 322.678 191.194C322.661 191.186 322.644 191.179 322.627 191.172C322.609 191.164 322.591 191.156 322.573 191.149C322.557 191.142 322.541 191.136 322.524 191.13C322.506 191.122 322.487 191.115 322.468 191.108C322.452 191.102 322.436 191.096 322.42 191.091C322.4 191.084 322.381 191.077 322.362 191.071C322.346 191.066 322.33 191.061 322.314 191.056C322.294 191.05 322.274 191.045 322.253 191.039C322.238 191.035 322.223 191.031 322.207 191.027C322.185 191.022 322.164 191.018 322.142 191.013C322.128 191.01 322.113 191.007 322.099 191.004C322.074 191 322.048 190.996 322.023 190.993C322.013 190.992 322.004 190.99 321.994 190.989C321.681 190.952 321.348 191.007 320.972 191.227C320.908 191.265 320.846 191.307 320.788 191.352C320.749 191.382 320.712 191.415 320.675 191.448C320.672 191.451 320.669 191.454 320.666 191.456C320.622 191.497 320.58 191.54 320.54 191.585C320.529 191.598 320.518 191.611 320.507 191.624C320.479 191.657 320.452 191.69 320.426 191.724C320.413 191.741 320.401 191.758 320.389 191.775C320.366 191.808 320.343 191.841 320.321 191.874C320.31 191.892 320.299 191.91 320.288 191.929C320.266 191.964 320.246 192 320.226 192.036C320.217 192.053 320.208 192.07 320.199 192.086C320.177 192.129 320.156 192.173 320.136 192.217C320.131 192.228 320.126 192.238 320.122 192.249C320.097 192.305 320.073 192.362 320.052 192.42C320.047 192.435 320.042 192.451 320.036 192.466C320.028 192.49 320.02 192.514 320.011 192.538C320.005 192.558 319.998 192.577 319.992 192.597C319.979 192.637 319.966 192.678 319.954 192.72C319.949 192.737 319.944 192.754 319.939 192.771C319.926 192.815 319.913 192.86 319.901 192.906C319.899 192.917 319.896 192.929 319.893 192.94C319.881 192.986 319.87 193.034 319.859 193.082C319.856 193.095 319.853 193.108 319.85 193.121C319.838 193.174 319.827 193.228 319.817 193.283C319.815 193.296 319.812 193.309 319.81 193.322C319.8 193.379 319.79 193.437 319.782 193.495C319.781 193.501 319.78 193.508 319.779 193.514C319.771 193.569 319.765 193.625 319.759 193.68C319.758 193.691 319.757 193.702 319.755 193.714C319.75 193.771 319.746 193.829 319.743 193.887C319.742 193.9 319.741 193.913 319.741 193.927C319.738 193.985 319.736 194.044 319.737 194.102C319.737 194.11 319.737 194.119 319.737 194.127C319.738 194.181 319.74 194.234 319.743 194.287C319.744 194.298 319.744 194.309 319.745 194.32C319.749 194.376 319.755 194.431 319.762 194.486C319.764 194.499 319.766 194.513 319.768 194.526C319.776 194.581 319.786 194.634 319.798 194.687C319.8 194.697 319.802 194.706 319.805 194.715C319.816 194.763 319.829 194.811 319.844 194.857C319.847 194.867 319.85 194.876 319.853 194.886C319.87 194.935 319.889 194.983 319.91 195.03C319.915 195.042 319.921 195.054 319.926 195.066C319.949 195.112 319.972 195.157 319.999 195.2C320.004 195.209 320.01 195.217 320.016 195.226C320.041 195.265 320.069 195.303 320.099 195.34C320.102 195.345 320.106 195.35 320.11 195.355C320.111 195.357 320.113 195.359 320.115 195.361C320.141 195.391 320.168 195.42 320.197 195.448C320.207 195.458 320.219 195.468 320.23 195.477C320.25 195.496 320.271 195.514 320.293 195.531C320.307 195.541 320.321 195.552 320.336 195.562C320.357 195.577 320.379 195.592 320.402 195.606C320.417 195.616 320.432 195.625 320.448 195.634C320.477 195.651 320.508 195.666 320.54 195.681C320.549 195.685 320.557 195.69 320.566 195.694C320.615 195.715 320.665 195.733 320.715 195.75C320.725 195.753 320.735 195.756 320.745 195.759C320.787 195.772 320.83 195.783 320.872 195.793C320.88 195.795 320.888 195.797 320.896 195.798C320.945 195.809 320.995 195.817 321.045 195.822C321.052 195.823 321.06 195.824 321.067 195.824C321.109 195.829 321.151 195.832 321.193 195.833C321.205 195.834 321.218 195.834 321.23 195.834C321.276 195.835 321.322 195.834 321.369 195.832C321.371 195.832 321.374 195.832 321.377 195.832C321.417 195.83 321.457 195.826 321.497 195.822C322.053 195.762 322.606 195.508 323.12 195.32C323.353 195.234 323.599 195.156 323.82 195.137L323.822 195.137C323.847 195.135 323.871 195.134 323.895 195.133C323.9 195.133 323.905 195.133 323.91 195.133C323.933 195.133 323.956 195.134 323.978 195.135L323.981 195.135C324.005 195.137 324.028 195.14 324.051 195.144C324.055 195.145 324.058 195.145 324.061 195.146C324.084 195.15 324.106 195.155 324.127 195.161L324.128 195.161C324.15 195.168 324.171 195.176 324.192 195.185C324.194 195.186 324.197 195.187 324.199 195.188C324.219 195.198 324.239 195.208 324.257 195.22C324.277 195.232 324.295 195.246 324.313 195.262C324.315 195.263 324.317 195.265 324.318 195.266C324.335 195.281 324.351 195.298 324.366 195.315L324.367 195.316L324.368 195.317C324.378 195.33 324.389 195.343 324.398 195.357L324.4 195.359C324.471 195.465 324.518 195.613 324.533 195.816C324.533 195.823 324.534 195.83 324.534 195.837C324.542 195.944 324.548 196.051 324.552 196.158C324.591 197.12 324.504 198.087 324.292 199.026C324.251 199.212 324.202 199.394 324.145 199.569C324.143 199.575 324.141 199.58 324.139 199.586C324.134 199.601 324.128 199.616 324.123 199.632C324.109 199.672 324.095 199.711 324.08 199.751C324.073 199.77 324.066 199.788 324.058 199.807C324.043 199.846 324.027 199.885 324.01 199.923C324.004 199.938 323.998 199.952 323.991 199.967C323.968 200.017 323.945 200.066 323.92 200.115C323.912 200.129 323.904 200.144 323.896 200.158C323.877 200.193 323.858 200.228 323.838 200.262C323.828 200.279 323.818 200.296 323.807 200.313C323.787 200.346 323.765 200.379 323.743 200.411C323.734 200.425 323.725 200.438 323.715 200.452C323.684 200.495 323.652 200.538 323.618 200.579C323.609 200.59 323.599 200.6 323.59 200.61C323.564 200.641 323.536 200.672 323.508 200.701C323.495 200.715 323.482 200.728 323.469 200.741C323.441 200.769 323.412 200.796 323.382 200.822C323.37 200.832 323.358 200.844 323.346 200.854C323.304 200.889 323.261 200.923 323.217 200.954C323.207 200.961 323.197 200.967 323.187 200.974C323.15 200.999 323.112 201.023 323.073 201.046C323.057 201.056 323.04 201.065 323.024 201.074C322.987 201.094 322.95 201.113 322.911 201.132C322.896 201.139 322.88 201.147 322.864 201.154C322.812 201.177 322.758 201.2 322.702 201.219C322.634 201.243 322.564 201.264 322.491 201.283C322.466 201.289 322.44 201.295 322.415 201.301C322.402 201.304 322.388 201.306 322.375 201.309C322.316 201.321 322.256 201.332 322.197 201.342C322.18 201.345 322.163 201.348 322.146 201.35C322.068 201.361 321.991 201.371 321.912 201.378C321.904 201.379 321.895 201.379 321.887 201.38C321.817 201.386 321.746 201.391 321.675 201.395C321.656 201.396 321.636 201.397 321.616 201.398C321.552 201.4 321.489 201.402 321.425 201.404C321.414 201.404 321.404 201.404 321.393 201.405C321.254 201.407 321.116 201.407 320.977 201.407C319.985 201.407 318.993 201.393 318.002 201.391C317.608 201.391 317.18 201.48 316.926 201.783C316.429 202.373 316.754 202.91 317.172 203.435C317.183 203.45 317.195 203.464 317.207 203.478C317.214 203.488 317.222 203.498 317.23 203.507C317.344 203.648 317.461 203.788 317.569 203.927C317.572 203.93 317.574 203.933 317.576 203.936C317.592 203.957 317.608 203.977 317.623 203.998C317.63 204.007 317.636 204.015 317.642 204.024C317.656 204.042 317.669 204.061 317.682 204.08C317.69 204.09 317.697 204.101 317.704 204.111C317.716 204.129 317.728 204.146 317.74 204.164C317.747 204.175 317.755 204.187 317.762 204.199C317.773 204.215 317.784 204.232 317.794 204.249C317.801 204.262 317.808 204.274 317.816 204.286C317.825 204.303 317.834 204.319 317.843 204.336C317.85 204.348 317.857 204.361 317.863 204.374C317.871 204.39 317.879 204.406 317.887 204.423C317.893 204.436 317.898 204.449 317.904 204.463C317.911 204.479 317.918 204.494 317.924 204.51C317.929 204.524 317.933 204.538 317.938 204.552C317.943 204.567 317.949 204.582 317.953 204.598C317.957 204.613 317.961 204.628 317.964 204.643C317.968 204.657 317.972 204.672 317.975 204.686C317.978 204.705 317.98 204.724 317.983 204.742C317.984 204.753 317.986 204.763 317.987 204.774C317.987 204.776 317.987 204.779 317.987 204.782C317.99 204.823 317.991 204.864 317.989 204.905C317.988 204.918 317.987 204.931 317.986 204.945C317.985 204.961 317.984 204.977 317.982 204.993C317.893 205.667 317.135 206.142 316.433 206.288C315.722 206.436 314.975 206.406 314.279 206.2C313.844 206.071 313.413 205.862 313.124 205.517C313.101 205.49 313.08 205.462 313.059 205.434C312.771 205.038 312.706 204.452 313.01 204.068C313.066 203.998 313.13 203.938 313.199 203.884C313.205 203.88 313.211 203.876 313.217 203.872C313.24 203.855 313.264 203.838 313.289 203.822C313.297 203.816 313.306 203.81 313.315 203.805C313.385 203.761 313.459 203.72 313.535 203.682C313.539 203.681 313.542 203.679 313.546 203.677C313.629 203.636 313.713 203.597 313.797 203.556C313.813 203.548 313.83 203.54 313.846 203.532C313.87 203.52 313.894 203.508 313.917 203.496C313.946 203.481 313.975 203.465 314.004 203.449C314.016 203.443 314.027 203.435 314.039 203.429C314.062 203.415 314.086 203.4 314.108 203.386C314.114 203.381 314.121 203.378 314.127 203.374C314.229 203.305 314.322 203.226 314.397 203.127C314.709 202.717 314.593 202.103 314.26 201.706C314.249 201.693 314.238 201.68 314.226 201.668C314.218 201.658 314.209 201.649 314.2 201.639C314.177 201.616 314.154 201.593 314.13 201.571C313.756 201.225 313.245 201.059 312.746 200.94C312.576 200.899 312.404 200.862 312.232 200.829C312.202 200.824 312.172 200.82 312.142 200.815C312.008 200.79 311.873 200.768 311.738 200.749C311.683 200.741 311.627 200.732 311.572 200.725C311.419 200.705 311.267 200.689 311.114 200.675C311.093 200.673 311.071 200.67 311.05 200.668C310.5 200.623 309.933 200.614 309.428 200.394C309.416 200.389 309.405 200.383 309.393 200.377C309.362 200.363 309.332 200.349 309.302 200.334C309.283 200.324 309.265 200.313 309.247 200.303C309.224 200.29 309.201 200.277 309.179 200.264C309.16 200.252 309.141 200.24 309.123 200.228C309.102 200.214 309.081 200.2 309.06 200.186C309.042 200.173 309.024 200.16 309.007 200.147C308.986 200.132 308.967 200.116 308.947 200.1C308.93 200.087 308.913 200.073 308.896 200.059C308.876 200.042 308.857 200.024 308.838 200.007C308.822 199.993 308.807 199.979 308.791 199.964C308.77 199.944 308.75 199.923 308.73 199.902C308.717 199.889 308.704 199.877 308.692 199.864C308.661 199.83 308.631 199.797 308.602 199.762L308.601 199.76C308.565 199.718 308.531 199.674 308.498 199.629C308.492 199.621 308.486 199.613 308.48 199.605C308.454 199.569 308.429 199.532 308.404 199.495C308.394 199.48 308.385 199.465 308.376 199.45C308.356 199.418 308.336 199.386 308.317 199.354C308.307 199.337 308.298 199.32 308.288 199.302C308.271 199.271 308.254 199.24 308.238 199.208C308.228 199.19 308.219 199.172 308.21 199.153C308.194 199.121 308.179 199.089 308.165 199.057C308.156 199.039 308.148 199.02 308.14 199.002C308.126 198.968 308.112 198.934 308.098 198.9C308.092 198.883 308.084 198.866 308.078 198.848C308.064 198.81 308.051 198.772 308.038 198.734C308.033 198.72 308.028 198.706 308.023 198.692C308.006 198.64 307.99 198.587 307.976 198.534L307.975 198.532C307.973 198.525 307.971 198.518 307.969 198.511C307.968 198.506 307.967 198.5 307.965 198.495C307.965 198.492 307.964 198.489 307.963 198.486C308.358 198.442 308.805 198.523 309.335 198.661Z" fill="#2F729B"/>
<defs>
<filter id="filter0_d_383_11253" x="29.3164" y="226.972" width="350.972" height="66.8264" filterUnits="userSpaceOnUse" color-interpolation-filters="sRGB">
<feFlood flood-opacity="0" result="BackgroundImageFix"/>
<feColorMatrix in="SourceAlpha" type="matrix" values="0 0 0 0 0 0 0 0 0 0 0 0 0 0 0 0 0 0 127 0" result="hardAlpha"/>
<feOffset dx="2.22157" dy="3.17367"/>
<feGaussianBlur stdDeviation="0.634734"/>
<feComposite in2="hardAlpha" operator="out"/>
<feColorMatrix type="matrix" values="0 0 0 0 0 0 0 0 0 0 0 0 0 0 0 0 0 0 0.25 0"/>
<feBlend mode="normal" in2="BackgroundImageFix" result="effect1_dropShadow_383_11253"/>
<feBlend mode="normal" in="SourceGraphic" in2="effect1_dropShadow_383_11253" result="shape"/>
</filter>
<filter id="filter1_d_383_11253" x="182.437" y="247.911" width="38.6602" height="46.14" filterUnits="userSpaceOnUse" color-interpolation-filters="sRGB">
<feFlood flood-opacity="0" result="BackgroundImageFix"/>
<feColorMatrix in="SourceAlpha" type="matrix" values="0 0 0 0 0 0 0 0 0 0 0 0 0 0 0 0 0 0 127 0" result="hardAlpha"/>
<feOffset dx="2.2" dy="3.2"/>
<feGaussianBlur stdDeviation="0.65"/>
<feComposite in2="hardAlpha" operator="out"/>
<feColorMatrix type="matrix" values="0 0 0 0 0 0 0 0 0 0 0 0 0 0 0 0 0 0 0.25 0"/>
<feBlend mode="normal" in2="BackgroundImageFix" result="effect1_dropShadow_383_11253"/>
<feBlend mode="normal" in="SourceGraphic" in2="effect1_dropShadow_383_11253" result="shape"/>
</filter>
<filter id="filter2_d_383_11253" x="-5.91278e-05" y="-1.95503e-05" width="251.205" height="246.521" filterUnits="userSpaceOnUse" color-interpolation-filters="sRGB">
<feFlood flood-opacity="0" result="BackgroundImageFix"/>
<feColorMatrix in="SourceAlpha" type="matrix" values="0 0 0 0 0 0 0 0 0 0 0 0 0 0 0 0 0 0 127 0" result="hardAlpha"/>
<feOffset dy="5.43882"/>
<feGaussianBlur stdDeviation="8.15823"/>
<feComposite in2="hardAlpha" operator="out"/>
<feColorMatrix type="matrix" values="0 0 0 0 0.0196078 0 0 0 0 0.168627 0 0 0 0 0.396078 0 0 0 0.15 0"/>
<feBlend mode="normal" in2="BackgroundImageFix" result="effect1_dropShadow_383_11253"/>
<feBlend mode="normal" in="SourceGraphic" in2="effect1_dropShadow_383_11253" result="shape"/>
</filter>
<filter id="filter3_d_383_11253" x="169.741" y="43.5036" width="157.082" height="189.8" filterUnits="userSpaceOnUse" color-interpolation-filters="sRGB">
<feFlood flood-opacity="0" result="BackgroundImageFix"/>
<feColorMatrix in="SourceAlpha" type="matrix" values="0 0 0 0 0 0 0 0 0 0 0 0 0 0 0 0 0 0 127 0" result="hardAlpha"/>
<feOffset dx="7.12388" dy="10.177"/>
<feGaussianBlur stdDeviation="2.03539"/>
<feComposite in2="hardAlpha" operator="out"/>
<feColorMatrix type="matrix" values="0 0 0 0 0 0 0 0 0 0 0 0 0 0 0 0 0 0 0.25 0"/>
<feBlend mode="normal" in2="BackgroundImageFix" result="effect1_dropShadow_383_11253"/>
<feBlend mode="normal" in="SourceGraphic" in2="effect1_dropShadow_383_11253" result="shape"/>
</filter>
<linearGradient id="paint0_linear_383_11253" x1="206.978" y1="289.354" x2="206.978" y2="234.909" gradientUnits="userSpaceOnUse">
<stop stop-color="#4282AA"/>
<stop offset="1" stop-color="#1A3444"/>
</linearGradient>
<linearGradient id="paint1_linear_383_11253" x1="203.316" y1="229.831" x2="203.316" y2="291.831" gradientUnits="userSpaceOnUse">
<stop offset="0.197115" stop-color="#1A3444"/>
<stop offset="1" stop-color="#4282AA"/>
</linearGradient>
<linearGradient id="paint2_linear_383_11253" x1="40.0376" y1="106.068" x2="186.682" y2="88.9933" gradientUnits="userSpaceOnUse">
<stop stop-color="#C6DDFF"/>
<stop offset="1" stop-color="white"/>
</linearGradient>
<linearGradient id="paint3_linear_383_11253" x1="242.676" y1="219.054" x2="242.676" y2="65.8408" gradientUnits="userSpaceOnUse">
<stop stop-color="#4282AA"/>
<stop offset="1" stop-color="#1A3444"/>
</linearGradient>
</defs>
</svg>
